<svg width="23" height="17" viewBox="0 0 23 17" fill="none" xmlns="http://www.w3.org/2000/svg">
<path fill-rule="evenodd" clip-rule="evenodd" d="M22.0098 7.93492L22.4941 8.50001L22.0097 9.06519C22.0075 9.06784 22.0052 9.07047 22.0029 9.07309L15.8645 16.2346C15.55 16.6015 14.9976 16.644 14.6307 16.3295C14.2638 16.015 14.2213 15.4626 14.5358 15.0957L19.4393 9.37501L1.38167 9.37501C0.898417 9.37501 0.506666 8.98325 0.506666 8.50001C0.506666 8.01676 0.898417 7.62501 1.38167 7.62501L19.4393 7.62501L14.5358 1.90431C14.2213 1.5374 14.2638 0.985012 14.6307 0.670518C14.9976 0.356024 15.55 0.398516 15.8645 0.765425L22.0028 7.92682C22.0052 7.92951 22.0075 7.93221 22.0098 7.93492Z" fill="#01032C"/>
</svg>
