<svg width="26" height="22" viewBox="0 0 26 22" fill="none" xmlns="http://www.w3.org/2000/svg">
<path fill-rule="evenodd" clip-rule="evenodd" d="M9.51311 2.51619C9.59333 2.25322 9.83598 2.07355 10.1109 2.07355L16.3896 2.07355C16.6645 2.07355 16.9072 2.25322 16.9874 2.51619L17.6633 4.73208L17.8524 5.35178H18.5002L22.2451 5.35178C22.8209 5.35178 23.2876 5.8185 23.2876 6.39422L23.2876 18.884C23.2876 19.4598 22.8209 19.9265 22.2451 19.9265L3.75532 19.9265C3.1796 19.9265 2.71289 19.4598 2.71289 18.884L2.71289 6.39422C2.71289 5.8185 3.1796 5.35178 3.75532 5.35178L8.00024 5.35178H8.64814L8.83717 4.73208L9.51311 2.51619ZM10.1109 0.323547C9.06615 0.323547 8.14409 1.00629 7.83926 2.0056L7.35235 3.60178L3.75532 3.60178C2.21311 3.60178 0.962891 4.852 0.962891 6.39422L0.962891 18.884C0.962891 20.4263 2.2131 21.6765 3.75532 21.6765L22.2451 21.6765C23.7874 21.6765 25.0376 20.4263 25.0376 18.884L25.0376 6.39422C25.0376 4.852 23.7874 3.60178 22.2451 3.60178L19.1481 3.60178L18.6612 2.00559C18.3564 1.00629 17.4343 0.323547 16.3896 0.323547L10.1109 0.323547ZM9.37523 12C9.37523 9.99796 10.9982 8.37499 13.0002 8.37499C15.0023 8.37499 16.6252 9.99796 16.6252 12C16.6252 14.002 15.0023 15.625 13.0002 15.625C10.9982 15.625 9.37523 14.002 9.37523 12ZM13.0002 6.62499C10.0317 6.62499 7.62523 9.03146 7.62523 12C7.62523 14.9685 10.0317 17.375 13.0002 17.375C15.9688 17.375 18.3752 14.9685 18.3752 12C18.3752 9.03146 15.9688 6.62499 13.0002 6.62499Z" fill="#086DE1"/>
</svg>
