<svg width="10" height="11" viewBox="0 0 10 11" fill="none" xmlns="http://www.w3.org/2000/svg">
<path fill-rule="evenodd" clip-rule="evenodd" d="M9.44391 1.93999C9.68799 1.69591 9.68799 1.30018 9.44391 1.05611C9.19984 0.812027 8.80411 0.812027 8.56003 1.05611L5.00002 4.61612L1.44001 1.05611C1.19593 0.812027 0.800199 0.812027 0.556122 1.05611C0.312044 1.30018 0.312044 1.69591 0.556122 1.93999L4.11613 5.5L0.556105 9.06003C0.312027 9.30411 0.312028 9.69984 0.556105 9.94391C0.800183 10.188 1.19591 10.188 1.43999 9.94391L5.00002 6.38388L8.56005 9.94391C8.80413 10.188 9.19985 10.188 9.44393 9.94391C9.68801 9.69984 9.68801 9.30411 9.44393 9.06003L5.8839 5.5L9.44391 1.93999Z" fill="white"/>
</svg>
