<svg width="17" height="17" viewBox="0 0 17 17" fill="none" xmlns="http://www.w3.org/2000/svg">
<path d="M8.5 0C3.78516 0 0 3.81836 0 8.5C0 13.2148 3.78516 17 8.5 17C13.1816 17 17 13.2148 17 8.5C17 3.81836 13.1816 0 8.5 0ZM11.1562 10.0605C11.4551 10.3926 11.4551 10.8906 11.1562 11.1895C10.8242 11.5215 10.3262 11.5215 10.0273 11.1895L8.5 9.62891L6.90625 11.1895C6.60742 11.5215 6.10938 11.5215 5.81055 11.1895C5.47852 10.8906 5.47852 10.3926 5.81055 10.0605L7.37109 8.5L5.81055 6.93945C5.47852 6.60742 5.47852 6.10938 5.81055 5.81055C6.10938 5.47852 6.60742 5.47852 6.90625 5.81055L8.5 7.4043L10.0605 5.84375C10.3594 5.51172 10.8574 5.51172 11.1562 5.84375C11.4883 6.14258 11.4883 6.64062 11.1562 6.97266L9.5957 8.5332L11.1562 10.0605Z" fill="#086DE1"/>
</svg>
