<svg width="35" height="35" viewBox="0 0 35 35" fill="none" xmlns="http://www.w3.org/2000/svg">
<rect x="0.25" y="0.25" width="34.5" height="34.5" rx="17.25" fill="#01021D"/>
<rect x="0.25" y="0.25" width="34.5" height="34.5" rx="17.25" stroke="#10178A" stroke-width="0.5"/>
<path fill-rule="evenodd" clip-rule="evenodd" d="M22.0323 14.0284C22.3252 13.7355 22.3252 13.2606 22.0323 12.9677C21.7394 12.6748 21.2645 12.6748 20.9716 12.9677L17.5 16.4393L14.0284 12.9677C13.7355 12.6748 13.2606 12.6748 12.9677 12.9677C12.6748 13.2606 12.6748 13.7355 12.9677 14.0284L16.4394 17.5L12.9677 20.9716C12.6748 21.2645 12.6748 21.7394 12.9677 22.0323C13.2606 22.3252 13.7355 22.3252 14.0284 22.0323L17.5 18.5606L20.9717 22.0323C21.2646 22.3252 21.7394 22.3252 22.0323 22.0323C22.3252 21.7394 22.3252 21.2645 22.0323 20.9716L18.5607 17.5L22.0323 14.0284Z" fill="#7AB7FD"/>
</svg>
