<svg width="50" height="50" viewBox="0 0 50 50" fill="none" xmlns="http://www.w3.org/2000/svg">
<g clip-path="url(#clip0_2033_73325)">
<g clip-path="url(#clip1_2033_73325)">
<rect width="90.7895" height="108.421" transform="translate(-20.5264 -29.2105)" fill="url(#paint0_radial_2033_73325)"/>
</g>
<g clip-path="url(#clip2_2033_73325)">
<path fill-rule="evenodd" clip-rule="evenodd" d="M37.1053 40.8069H12.8948C12.8948 42.4552 14.2313 43.7917 15.8796 43.7917H34.1204C35.7687 43.7917 37.1053 42.4552 37.1053 40.8069ZM35.3641 44.6623H14.6359C14.6359 45.5777 15.3788 46.3206 16.2942 46.3206H33.7058C34.6212 46.3206 35.3641 45.5777 35.3641 44.6623Z" fill="url(#paint1_linear_2033_73325)"/>
<path fill-rule="evenodd" clip-rule="evenodd" d="M17.0867 58.3943V47.3171C16.5527 47.3171 16.1199 47.75 16.1216 48.2839C16.1216 49.2689 16.1216 49.8675 16.1216 50.5292C16.1216 51.7314 16.1232 53.136 16.1232 57.4341C16.1232 57.9664 16.5544 58.3959 17.085 58.3959L17.0867 58.3943ZM32.9197 47.3171V58.3943C33.4487 58.3943 33.8765 57.9664 33.8765 57.4375C33.8765 52.8424 33.8765 49.0699 33.8781 48.2773C33.8781 47.7466 33.4487 47.3171 32.918 47.3171H32.9197ZM31.9148 60.3344C31.9148 60.87 31.4803 61.3045 30.9447 61.3045C30.4091 61.3045 29.9746 60.87 29.9746 60.3344V48.2872C29.9746 47.7516 30.4091 47.3171 30.9447 47.3171C31.4803 47.3171 31.9148 47.7516 31.9148 48.2872V48.8328C31.9148 51.5639 31.9148 53.184 31.9148 60.3361V60.3344ZM20.0251 60.3361V48.2856C20.0251 47.75 19.5923 47.3171 19.0567 47.3171C18.5211 47.3171 18.0883 47.75 18.0883 48.2856V60.3361C18.0883 60.8717 18.5211 61.3045 19.0567 61.3045C19.5923 61.3045 20.0251 60.8717 20.0251 60.3361ZM28.983 48.2955C28.983 51.7928 28.983 55.4243 28.9863 64.3059C28.9863 64.8465 28.5469 65.286 28.0063 65.286C27.4657 65.286 27.0263 64.8482 27.0263 64.3059V48.2939C27.0263 47.7533 27.464 47.3155 28.0046 47.3155C28.5452 47.3155 28.983 47.7533 28.983 48.2939V48.2955ZM22.9785 64.3093C22.9751 55.416 22.9751 51.7861 22.9751 48.2922C22.9751 47.7533 22.539 47.3171 22.0001 47.3171C21.4612 47.3171 21.025 47.7533 21.025 48.2922V64.3093C21.025 64.8482 21.4628 65.286 22.0017 65.286C22.5407 65.286 22.9785 64.8482 22.9785 64.3093ZM25.9583 48.3104V67.9093C25.9583 68.4416 25.5255 68.8744 24.9932 68.8744C24.4609 68.8744 24.0281 68.4433 24.0281 67.9093C24.0281 60.7987 24.0281 55.8687 24.0281 52.2455C24.0281 50.7132 24.0281 49.4148 24.0281 48.2839C24.0281 47.7748 24.4228 47.3569 24.9219 47.3205C25.4924 47.279 25.96 47.74 25.96 48.3121L25.9583 48.3104Z" fill="url(#paint2_linear_2033_73325)"/>
<path d="M18.9439 19.7786C18.5276 19.6177 18.138 19.4204 17.7715 19.1866C19.7564 20.6226 21.2803 21.5728 22.2206 21.9343C22.2952 21.9625 22.3698 21.9907 22.4478 22.0205V20.8498C21.0266 20.4883 19.8592 20.1318 18.9422 19.7802L18.9439 19.7786Z" fill="url(#paint3_linear_2033_73325)"/>
<path d="M27.4176 11.2203C26.6399 10.7461 25.7378 10.436 24.7163 10.2834V19.2131C26.0197 19.5348 27.1141 19.8466 27.9947 20.1467V12.4391C28.25 12.4773 28.4971 12.5254 28.7376 12.5834C28.7459 12.5851 28.7508 12.59 28.7591 12.5917C28.4441 12.0312 27.9963 11.5735 27.4176 11.2203Z" fill="url(#paint4_linear_2033_73325)"/>
<path d="M27.4176 11.2203C26.6399 10.7461 25.7378 10.436 24.7163 10.2834L27.9947 12.4391C28.25 12.4773 28.4971 12.5254 28.7376 12.5834C28.7459 12.5851 28.7508 12.59 28.7591 12.5917C28.4441 12.0312 27.9963 11.5735 27.4176 11.2203Z" fill="url(#paint5_linear_2033_73325)"/>
<path d="M28.0428 9.01483L27.993 8.98664V6.79443L24.7163 4.64037V8.14425C25.9484 8.26696 27.0561 8.56047 28.0444 9.01483H28.0428Z" fill="url(#paint6_linear_2033_73325)"/>
<path d="M27.9932 23.566C28.4045 23.6754 28.7759 23.7832 29.1175 23.8894C29.0097 23.7103 28.8837 23.5428 28.7394 23.3869C28.1557 22.7568 27.4327 22.2875 26.5737 21.9774C26.0647 21.795 25.4428 21.6059 24.7148 21.4103V30.0149C26.0497 29.932 27.1409 29.602 27.9932 29.0283V23.566Z" fill="url(#paint7_linear_2033_73325)"/>
<path d="M27.9932 23.566C28.4045 23.6754 28.7759 23.7832 29.1175 23.8893C29.0097 23.7103 28.8837 23.5428 28.7394 23.3869C28.1557 22.7568 27.4327 22.2875 26.5737 21.9774C26.0647 21.795 25.4428 21.6059 24.7148 21.4103L27.9932 23.566Z" fill="url(#paint8_linear_2033_73325)"/>
<path d="M24.7163 36.6297L27.993 38.6942V34.2634L24.7793 32.2221L24.7163 36.6297Z" fill="url(#paint9_linear_2033_73325)"/>
<path d="M34.3211 24.2707C33.5998 23.435 32.7225 22.8264 31.6911 22.4483C31.5236 22.387 31.3429 22.324 31.1572 22.2626C31.8006 23.0834 32.1256 24.1596 32.1256 25.5012C32.1256 26.9223 31.7641 28.1312 31.0427 29.1278C30.3214 30.1244 29.3414 30.8756 28.1043 31.3797C27.0845 31.7959 25.9536 32.0363 24.7148 32.1093L24.7779 32.2237L27.9932 34.265C29.2303 34.1921 30.3612 33.95 31.3827 33.5354C32.6197 33.0313 33.5998 32.2801 34.3211 31.2835C35.0424 30.2869 35.4039 29.078 35.4039 27.6569C35.4039 26.2358 35.0424 25.1082 34.3211 24.2707Z" fill="url(#paint10_linear_2033_73325)"/>
<path d="M22.4495 13.386V10.1988C21.1013 10.2884 20.0118 10.6267 19.186 11.2203C18.2126 11.9201 17.7251 12.9681 17.7251 14.366C17.7251 15.3742 18.0169 16.1768 18.6023 16.7721C19.186 17.3675 19.9024 17.8202 20.7514 18.1303C20.9637 18.2082 21.2008 18.2861 21.4562 18.3657C21.1577 17.8566 21.0051 17.2431 21.0051 16.5218C21.0051 15.1305 21.4877 14.0858 22.4528 13.3877L22.4495 13.386Z" fill="url(#paint11_linear_2033_73325)"/>
<path d="M22.4497 36.5385L25.7264 38.6942H27.9932L24.7165 36.6297L22.4497 36.5385Z" fill="#470B95"/>
<path d="M31.0425 22.115C30.3211 21.2793 29.4439 20.6707 28.4125 20.2926C27.469 19.946 26.2336 19.5862 24.7146 19.2114V10.2818C25.7361 10.4343 26.6382 10.7427 27.4159 11.2187C28.5617 11.9184 29.1919 13.0228 29.3063 14.5352H31.7804C31.6892 12.3811 30.8468 10.766 29.2549 9.6881C27.9913 8.8341 26.4773 8.31838 24.7146 8.14261V4.64038H22.4478V8.09784C20.3866 8.21226 18.7068 8.75285 17.4133 9.72458C15.9458 10.824 15.2128 12.3944 15.2128 14.434C15.2128 15.8784 15.5743 17.0292 16.2957 17.8882C17.017 18.7471 17.8992 19.3773 18.9422 19.7786C19.8576 20.1318 21.0266 20.4883 22.4478 20.8481V29.9221C21.2041 29.7314 20.1279 29.3002 19.2175 28.6287C17.9456 27.6901 17.2293 26.269 17.0701 24.3669H14.5959C14.6424 25.9025 15.0652 27.2606 15.8678 28.4396C16.6704 29.6203 17.7698 30.5307 19.1677 31.1724C20.1677 31.6317 21.2621 31.9236 22.4494 32.0529V36.5369H24.7163V32.1077C25.9533 32.0347 27.0842 31.7926 28.1057 31.378C29.3428 30.8739 30.3228 30.1227 31.0441 29.1261C31.7655 28.1295 32.127 26.9207 32.127 25.4995C32.127 24.0784 31.7655 22.9508 31.0441 22.1134L31.0425 22.115ZM22.4494 18.6543C21.7845 18.4735 21.214 18.2994 20.7497 18.1286C19.9024 17.8185 19.186 17.3675 18.6006 16.7705C18.0169 16.1752 17.7234 15.3726 17.7234 14.3644C17.7234 12.9665 18.2093 11.9184 19.1843 11.2187C20.0118 10.625 21.1013 10.2867 22.4478 10.1972V18.6526L22.4494 18.6543ZM28.1041 28.9553C27.2368 29.5755 26.1059 29.9271 24.7146 30.0149V21.4103C25.4442 21.606 26.0661 21.795 26.5735 21.9774C27.4325 22.2875 28.1538 22.7568 28.7392 23.3869C29.3229 24.0171 29.6164 24.8478 29.6164 25.8793C29.6164 27.2092 29.1123 28.234 28.1041 28.9553Z" fill="white"/>
<path d="M24.7793 32.2221L24.7163 36.6297L27.993 38.6942V34.2634L24.7793 32.2221Z" fill="url(#paint12_linear_2033_73325)"/>
<path d="M19.2194 28.6287C19.8678 29.1079 20.6024 29.4611 21.4216 29.6966C20.8146 28.8542 20.4565 27.7979 20.3487 26.5227L17.0703 24.3669C17.2312 26.269 17.9475 27.6901 19.2177 28.6287H19.2194Z" fill="url(#paint13_linear_2033_73325)"/>
<path d="M31.7821 14.5368L35.0605 16.6926C34.9693 14.5385 34.1269 12.9234 32.535 11.8455C31.2714 10.9915 29.2566 9.68977 29.2566 9.68977C30.8485 10.7676 31.6909 12.3828 31.7821 14.5368Z" fill="url(#paint14_linear_2033_73325)"/>
<path d="M19.1678 31.1724C18.4846 30.859 17.8743 30.4809 17.3337 30.0382C18.8361 31.3117 21.1212 32.7196 22.4461 33.3265L22.4494 32.0529C21.2621 31.9219 20.1677 31.6301 19.1678 31.1724Z" fill="url(#paint15_linear_2033_73325)"/>
<path d="M29.3081 14.5368L32.5848 16.6925H35.0606L31.7822 14.5368H29.3081Z" fill="url(#paint16_linear_2033_73325)"/>
</g>
</g>
<rect x="0.357143" y="0.357143" width="49.2857" height="49.2857" rx="5.35714" stroke="#01021D" stroke-width="0.714286"/>
<defs>
<radialGradient id="paint0_radial_2033_73325" cx="0" cy="0" r="1" gradientUnits="userSpaceOnUse" gradientTransform="translate(20.1606 28.211) rotate(65.032) scale(49.9754 80.8289)">
<stop stop-color="#0D137B"/>
<stop offset="1" stop-color="#01032C"/>
</radialGradient>
<linearGradient id="paint1_linear_2033_73325" x1="25" y1="41.5945" x2="25" y2="46.3206" gradientUnits="userSpaceOnUse">
<stop stop-color="white"/>
<stop offset="0.52" stop-color="#478EED"/>
<stop offset="1" stop-color="#473DB6"/>
</linearGradient>
<linearGradient id="paint2_linear_2033_73325" x1="23.4958" y1="40.2729" x2="26.8903" y2="68.6373" gradientUnits="userSpaceOnUse">
<stop stop-color="#4697F3"/>
<stop offset="1" stop-color="#460A94"/>
</linearGradient>
<linearGradient id="paint3_linear_2033_73325" x1="20.9172" y1="29.3019" x2="20.1776" y2="20.7884" gradientUnits="userSpaceOnUse">
<stop stop-color="#4697F3"/>
<stop offset="1" stop-color="#460A94"/>
</linearGradient>
<linearGradient id="paint4_linear_2033_73325" x1="29.0991" y1="22.576" x2="24.8689" y2="10.6234" gradientUnits="userSpaceOnUse">
<stop stop-color="#4697F3"/>
<stop offset="1" stop-color="#460A94"/>
</linearGradient>
<linearGradient id="paint5_linear_2033_73325" x1="26.9748" y1="18.4719" x2="26.7095" y2="10.6449" gradientUnits="userSpaceOnUse">
<stop stop-color="#4697F3"/>
<stop offset="1" stop-color="#460A94"/>
</linearGradient>
<linearGradient id="paint6_linear_2033_73325" x1="26.3795" y1="4.47454" x2="26.3795" y2="13.7823" gradientUnits="userSpaceOnUse">
<stop stop-color="#4697F3"/>
<stop offset="1" stop-color="#460A94"/>
</linearGradient>
<linearGradient id="paint7_linear_2033_73325" x1="28.5106" y1="31.635" x2="25.1261" y2="21.6922" gradientUnits="userSpaceOnUse">
<stop stop-color="#4697F3"/>
<stop offset="1" stop-color="#460A94"/>
</linearGradient>
<linearGradient id="paint8_linear_2033_73325" x1="27.2835" y1="28.2041" x2="26.8606" y2="21.8049" gradientUnits="userSpaceOnUse">
<stop stop-color="#4697F3"/>
<stop offset="1" stop-color="#460A94"/>
</linearGradient>
<linearGradient id="paint9_linear_2033_73325" x1="23.4328" y1="32.0082" x2="29.4092" y2="39.0425" gradientUnits="userSpaceOnUse">
<stop stop-color="#4697F3"/>
<stop offset="1" stop-color="#460A94"/>
</linearGradient>
<linearGradient id="paint10_linear_2033_73325" x1="30.0594" y1="22.2444" x2="30.0594" y2="34.4458" gradientUnits="userSpaceOnUse">
<stop offset="0.06" stop-color="#4697F3"/>
<stop offset="0.88" stop-color="#460A94"/>
</linearGradient>
<linearGradient id="paint11_linear_2033_73325" x1="22.3947" y1="18.5962" x2="19.0102" y2="9.92357" gradientUnits="userSpaceOnUse">
<stop stop-color="#4697F3"/>
<stop offset="1" stop-color="#460A94"/>
</linearGradient>
<linearGradient id="paint12_linear_2033_73325" x1="30.5932" y1="41.8698" x2="23.6119" y2="31.2918" gradientUnits="userSpaceOnUse">
<stop stop-color="#4697F3"/>
<stop offset="1" stop-color="#460A94"/>
</linearGradient>
<linearGradient id="paint13_linear_2033_73325" x1="15.4883" y1="21.9675" x2="22.7863" y2="31.8059" gradientUnits="userSpaceOnUse">
<stop stop-color="#4697F3"/>
<stop offset="1" stop-color="#460A94"/>
</linearGradient>
<linearGradient id="paint14_linear_2033_73325" x1="31.6594" y1="10.4907" x2="33.7753" y2="20.8564" gradientUnits="userSpaceOnUse">
<stop stop-color="#4697F3"/>
<stop offset="1" stop-color="#460A94"/>
</linearGradient>
<linearGradient id="paint15_linear_2033_73325" x1="19.8908" y1="37.5285" x2="19.8908" y2="31.6052" gradientUnits="userSpaceOnUse">
<stop stop-color="#4697F3"/>
<stop offset="1" stop-color="#460A94"/>
</linearGradient>
<linearGradient id="paint16_linear_2033_73325" x1="32.1835" y1="25.5244" x2="32.1835" y2="14.6297" gradientUnits="userSpaceOnUse">
<stop stop-color="#4697F3"/>
<stop offset="1" stop-color="#460A94"/>
</linearGradient>
<clipPath id="clip0_2033_73325">
<rect width="50" height="50" rx="5.71428" fill="white"/>
</clipPath>
<clipPath id="clip1_2033_73325">
<rect width="90.7895" height="108.421" fill="white" transform="translate(-20.5264 -29.2105)"/>
</clipPath>
<clipPath id="clip2_2033_73325">
<rect width="24.2105" height="64.2324" fill="white" transform="translate(12.8948 4.6404)"/>
</clipPath>
</defs>
</svg>
