<svg width="273" height="320" viewBox="0 0 273 320" fill="none" xmlns="http://www.w3.org/2000/svg">
<g clip-path="url(#clip0_49_618)">
<path fill-rule="evenodd" clip-rule="evenodd" d="M167.126 1.12426C135.532 -2.63583 125.208 8.00925 127.889 38.656C155.64 41.3742 169.639 29.8556 167.126 1.12426ZM255.075 1.35656C223.481 -2.40352 213.157 8.24155 215.838 38.8883C243.589 41.6065 257.589 30.0879 255.075 1.35656ZM112.203 31.4336C80.6088 27.6735 70.2847 38.3186 72.966 68.9654C100.717 71.6836 114.716 60.1649 112.203 31.4336ZM57.2796 61.5104C25.6857 57.7503 15.3617 68.3954 18.0429 99.0422C45.7938 101.76 59.7932 90.2417 57.2796 61.5104ZM231.473 73.8243H189.645C156.972 73.8243 124.805 81.92 95.9907 97.4604L55.9095 120.021C33.0099 135.42 25.3767 150.819 25.3767 173.889V227.756L41.3191 239.843C40.8966 238.428 40.6713 236.956 40.6431 235.456V181.588C40.6431 150.79 55.9095 135.42 71.1758 135.42C71.1758 135.42 55.9095 143.119 55.9095 181.588V250.855L71.8518 262.942C71.4293 261.526 71.204 260.054 71.1758 258.554V204.686C71.1758 173.889 86.4422 158.518 101.709 158.518C101.709 158.518 86.4422 166.217 86.4422 204.686V273.953L102.385 286.04C101.962 284.624 101.737 283.153 101.709 281.652V227.785C101.709 196.987 116.975 181.616 132.241 181.616C132.241 181.616 116.975 189.316 116.975 227.785V297.051L133.002 309.138C132.523 307.723 132.269 306.251 132.241 304.751V242.023C131.481 211.225 145.902 199.393 171.083 204.63C176.041 206.017 181.223 206.526 186.35 206.102C188.378 205.903 190.293 204.969 191.701 203.469C193.11 201.969 193.926 199.987 193.983 197.921V191.524C194.011 190.561 193.729 189.599 193.166 188.806C192.603 188.014 191.786 187.447 190.856 187.193L170.999 181.56C175.731 176.521 181.449 172.558 187.814 169.897C194.18 167.236 200.996 165.963 207.869 166.161H223.671C225.107 166.161 225.107 164.689 224.347 163.387C223.957 162.682 223.504 161.862 223 160.952L222.967 160.892L222.963 160.885L222.963 160.885C219.012 153.747 212.043 141.156 209.08 134.825C206.968 130.268 206.123 125.229 206.63 120.247C207.137 115.237 208.939 110.481 211.897 106.434C218.319 98.7342 230.459 96.8943 239.838 96.8943V81.4954C239.838 80.4197 239.613 79.3441 239.19 78.3533C238.768 77.3626 238.12 76.4851 237.331 75.7491C236.543 75.0132 235.613 74.4753 234.599 74.1356C233.585 73.796 232.515 73.6827 231.445 73.796L231.473 73.8243ZM177.449 125.399C172.858 130.947 167.112 135.391 160.633 138.449C154.155 141.506 147.057 143.091 139.903 143.091V119.993H117.003C117.003 113.878 119.425 107.99 123.707 103.66C127.988 99.3286 133.819 96.8943 139.903 96.8943H200.968L177.449 125.371V125.399ZM216.329 194.181V204.015C224.165 204.015 239.838 211.701 239.838 242.446V180.984L221.649 186.89C220.088 187.399 218.729 188.388 217.775 189.688C216.82 190.988 216.3 192.57 216.3 194.181H216.329ZM168.183 218.18C181.665 220.374 195.375 221.022 209.028 220.093L209.085 220.149C221.487 220.149 224.558 225.579 224.103 250.757V317.234C219.126 318.865 213.921 319.653 208.687 319.597V243.105C208.687 241.08 207.89 239.139 206.44 237.704C204.989 236.269 203.027 235.453 200.979 235.453H170.146L188.719 253.88C190.142 255.315 191.279 257.003 192.076 258.859C192.844 260.716 193.242 262.713 193.242 264.739V319.569H177.826V269.606C177.826 268.481 177.57 267.355 177.086 266.343C176.602 265.33 175.92 264.43 175.038 263.698L162.409 253.233V319.541H146.993V243.049C146.907 218.18 157.943 216.183 168.183 218.18ZM225.454 138.375C225.454 138.375 233.472 139.61 239.838 136.523C239.838 138.208 239.831 140.777 239.823 143.701L239.823 143.733V143.734C239.802 151.015 239.776 160.479 239.838 163.984C234.768 155.534 230 147.123 225.454 138.375Z" fill="white"/>
</g>
<defs>
<clipPath id="clip0_49_618">
<rect width="271.726" height="319.199" fill="white" transform="translate(0.636963 0.400146)"/>
</clipPath>
</defs>
</svg>
