<svg width="114" height="114" viewBox="0 0 114 114" fill="none" xmlns="http://www.w3.org/2000/svg">
<rect width="114" height="114" rx="10" fill="white" fill-opacity="0.04"/>
<rect x="0.5" y="0.5" width="113" height="113" rx="9.5" stroke="white" stroke-opacity="0.2"/>
<path fill-rule="evenodd" clip-rule="evenodd" d="M56.1243 61.125C56.1243 61.6083 56.5161 62 56.9993 62C57.4826 62 57.8743 61.6083 57.8743 61.125V52.4304H66.5689C67.0522 52.4304 67.4439 52.0386 67.4439 51.5554C67.4439 51.0722 67.0522 50.6804 66.5689 50.6804H57.8743V41.9858C57.8743 41.5025 57.4826 41.1108 56.9993 41.1108C56.5161 41.1108 56.1243 41.5025 56.1243 41.9858V50.6804H47.4297C46.9464 50.6804 46.5547 51.0722 46.5547 51.5554C46.5547 52.0386 46.9464 52.4304 47.4297 52.4304H56.1243V61.125Z" fill="white"/>
<path d="M18.235 85.9H19.834L22.733 93.739L25.632 85.9H27.231V95H26.165V87.343L23.292 95H22.174L19.301 87.343V95H18.235V85.9ZM29.5429 88.461H30.6089V95H29.5429V88.461ZM29.4779 85.822H30.6739V87.135H29.4779V85.822ZM32.7935 88.461H33.8335V89.696C34.0415 89.2713 34.3405 88.9377 34.7305 88.695C35.1205 88.4523 35.5971 88.331 36.1605 88.331C36.8798 88.331 37.4301 88.5303 37.8115 88.929C38.1928 89.319 38.3835 89.8693 38.3835 90.58V95H37.3175V90.749C37.3175 90.2723 37.1831 89.9083 36.9145 89.657C36.6458 89.4057 36.2948 89.28 35.8615 89.28C35.4975 89.28 35.1595 89.371 34.8475 89.553C34.5441 89.7263 34.3015 89.982 34.1195 90.32C33.9461 90.658 33.8595 91.0523 33.8595 91.503V95H32.7935V88.461ZM42.6179 95C42.0719 95 41.6559 94.8613 41.3699 94.584C41.0839 94.298 40.9409 93.882 40.9409 93.336V89.397H39.6799V88.461H40.9409V86.667L42.0069 86.368V88.461H43.5279V89.397H42.0069V93.193C42.0069 93.4963 42.0676 93.7173 42.1889 93.856C42.3103 93.9947 42.5183 94.064 42.8129 94.064H43.6709V95H42.6179ZM51.3105 85.9H52.5585L56.2245 95H55.0415L54.0795 92.543H49.7895L48.8275 95H47.6445L51.3105 85.9ZM53.6765 91.516L51.9345 87.057L50.1925 91.516H53.6765ZM57.7905 88.461H58.8305V89.696C59.0385 89.2713 59.3375 88.9377 59.7275 88.695C60.1175 88.4523 60.5942 88.331 61.1575 88.331C61.8769 88.331 62.4272 88.5303 62.8085 88.929C63.1899 89.319 63.3805 89.8693 63.3805 90.58V95H62.3145V90.749C62.3145 90.2723 62.1802 89.9083 61.9115 89.657C61.6429 89.4057 61.2919 89.28 60.8585 89.28C60.4945 89.28 60.1565 89.371 59.8445 89.553C59.5412 89.7263 59.2985 89.982 59.1165 90.32C58.9432 90.658 58.8565 91.0523 58.8565 91.503V95H57.7905V88.461ZM68.226 95.143C67.5933 95.143 67.0387 95.0087 66.562 94.74C66.0853 94.4627 65.717 94.0683 65.457 93.557C65.197 93.037 65.067 92.4303 65.067 91.737C65.067 91.0437 65.197 90.4413 65.457 89.93C65.717 89.41 66.0853 89.0157 66.562 88.747C67.0387 88.4697 67.5933 88.331 68.226 88.331C68.8587 88.331 69.4133 88.4697 69.89 88.747C70.3667 89.0157 70.735 89.41 70.995 89.93C71.255 90.4413 71.385 91.0437 71.385 91.737C71.385 92.4303 71.255 93.037 70.995 93.557C70.735 94.0683 70.3667 94.4627 69.89 94.74C69.4133 95.0087 68.8587 95.143 68.226 95.143ZM68.226 94.155C68.8587 94.155 69.3613 93.9427 69.734 93.518C70.1067 93.0933 70.293 92.4997 70.293 91.737C70.293 90.9743 70.1067 90.3807 69.734 89.956C69.3613 89.5313 68.8587 89.319 68.226 89.319C67.5933 89.319 67.0907 89.5313 66.718 89.956C66.3453 90.3807 66.159 90.9743 66.159 91.737C66.159 92.4997 66.3453 93.0933 66.718 93.518C67.0907 93.9427 67.5933 94.155 68.226 94.155ZM75.2322 95C74.6862 95 74.2702 94.8613 73.9842 94.584C73.6982 94.298 73.5552 93.882 73.5552 93.336V89.397H72.2942V88.461H73.5552V86.667L74.6212 86.368V88.461H76.1422V89.397H74.6212V93.193C74.6212 93.4963 74.6818 93.7173 74.8032 93.856C74.9245 93.9947 75.1325 94.064 75.4272 94.064H76.2852V95H75.2322ZM77.9126 85.757H78.9786V89.67C79.1866 89.2453 79.4813 88.916 79.8626 88.682C80.2526 88.448 80.725 88.331 81.2796 88.331C81.999 88.331 82.5493 88.5303 82.9306 88.929C83.312 89.319 83.5026 89.8693 83.5026 90.58V95H82.4366V90.749C82.4366 90.2723 82.3023 89.9083 82.0336 89.657C81.765 89.4057 81.414 89.28 80.9806 89.28C80.6166 89.28 80.2786 89.371 79.9666 89.553C79.6633 89.7263 79.4206 89.982 79.2386 90.32C79.0653 90.658 78.9786 91.0523 78.9786 91.503V95H77.9126V85.757ZM88.2831 95.143C87.6764 95.143 87.1391 95.0217 86.6711 94.779C86.2117 94.5277 85.8477 94.1507 85.5791 93.648C85.3191 93.1453 85.1891 92.5257 85.1891 91.789C85.1891 91.113 85.3191 90.515 85.5791 89.995C85.8391 89.4663 86.2031 89.059 86.6711 88.773C87.1391 88.4783 87.6851 88.331 88.3091 88.331C89.2277 88.331 89.9341 88.643 90.4281 89.267C90.9221 89.8823 91.1691 90.723 91.1691 91.789V92.023H85.7611V91.113H90.0771C90.0251 90.5323 89.8561 90.0817 89.5701 89.761C89.2927 89.4403 88.8724 89.28 88.3091 89.28C87.6331 89.28 87.1174 89.5053 86.7621 89.956C86.4154 90.398 86.2421 91.0003 86.2421 91.763C86.2421 92.5777 86.4241 93.1887 86.7881 93.596C87.1521 93.9947 87.6591 94.194 88.3091 94.194C88.7337 94.194 89.0804 94.1073 89.3491 93.934C89.6264 93.752 89.8474 93.4703 90.0121 93.089H91.1171C90.9004 93.7737 90.5494 94.2893 90.0641 94.636C89.5874 94.974 88.9937 95.143 88.2831 95.143ZM92.9185 88.461H93.9585V89.696C94.1145 89.2713 94.3485 88.9463 94.6605 88.721C94.9725 88.4957 95.3711 88.383 95.8565 88.383H96.3245V89.41H95.9085C95.2325 89.41 94.7428 89.6223 94.4395 90.047C94.1361 90.463 93.9845 91.0393 93.9845 91.776V95H92.9185V88.461Z" fill="white"/>
</svg>
