<svg width="21" height="22" viewBox="0 0 21 22" fill="none" xmlns="http://www.w3.org/2000/svg">
<path fill-rule="evenodd" clip-rule="evenodd" d="M1.5 11C1.5 6.2987 5.31115 2.48755 10.0124 2.48755C12.2117 2.48755 14.2162 3.32158 15.7269 4.69062L16.7886 3.62886C15.0056 1.9889 12.626 0.987549 10.0124 0.987549C4.48272 0.987549 0 5.47027 0 11C0 16.5297 4.48272 21.0124 10.0124 21.0124C15.5422 21.0124 20.0249 16.5297 20.0249 11C20.0249 10.0236 19.8851 9.07988 19.6245 8.1877L18.3807 9.43154C18.4754 9.93991 18.5249 10.4642 18.5249 11C18.5249 15.7013 14.7137 19.5124 10.0124 19.5124C5.31115 19.5124 1.5 15.7013 1.5 11Z" fill="#30DB5B"/>
<path d="M6.43997 10.158L9.91597 13.7001C9.97322 13.7584 10.0668 13.7598 10.1257 13.7031L18.2671 5.86886" stroke="#30DB5B" stroke-width="1.5" stroke-linecap="round"/>
</svg>
