<svg width="269" height="88" viewBox="0 0 269 88" fill="none" xmlns="http://www.w3.org/2000/svg">
<mask id="mask0_647_18749" style="mask-type:alpha" maskUnits="userSpaceOnUse" x="122" y="0" width="31" height="29">
<mask id="path-1-inside-1_647_18749" fill="white">
<path d="M152.475 15.8564C152.629 13.2098 152.068 10.5705 150.851 8.21508C149.635 5.85961 147.807 3.87455 145.56 2.46776C143.313 1.06097 140.729 0.284204 138.079 0.218795C135.429 0.153387 132.81 0.801744 130.496 2.09598C128.182 3.39021 126.259 5.2827 124.928 7.57529C123.597 9.86788 122.906 12.4762 122.929 15.1272C122.952 17.7782 123.687 20.3743 125.058 22.6436C126.428 24.9129 128.384 26.7721 130.719 28.0263L137.714 15L152.475 15.8564Z"/>
</mask>
<path d="M152.475 15.8564C152.629 13.2098 152.068 10.5705 150.851 8.21508C149.635 5.85961 147.807 3.87455 145.56 2.46776C143.313 1.06097 140.729 0.284204 138.079 0.218795C135.429 0.153387 132.81 0.801744 130.496 2.09598C128.182 3.39021 126.259 5.2827 124.928 7.57529C123.597 9.86788 122.906 12.4762 122.929 15.1272C122.952 17.7782 123.687 20.3743 125.058 22.6436C126.428 24.9129 128.384 26.7721 130.719 28.0263L137.714 15L152.475 15.8564Z" stroke="white" stroke-width="3.85714" mask="url(#path-1-inside-1_647_18749)"/>
</mask>
<g mask="url(#mask0_647_18749)">
<circle cx="137.714" cy="15" r="14.0357" stroke="white" stroke-width="1.5"/>
</g>
<path d="M143.735 33.5963C140.243 33.5963 137.351 31.6187 135.938 27.3585L134.085 21.7875C134.017 21.5954 133.972 21.3807 133.972 21.1434C133.972 20.4993 134.424 19.9682 135.204 19.9682C135.689 19.9682 136.062 20.2055 136.322 20.7931L137.972 24.6239C138.096 24.9064 138.243 25.0081 138.424 25.0081C138.616 25.0081 138.808 24.8612 138.808 24.5787V12.6117C138.808 11.7755 139.328 11.2444 140.063 11.2444C140.775 11.2444 141.306 11.7755 141.306 12.6117V20.9852C141.306 21.3581 141.498 21.5615 141.746 21.5615C141.984 21.5615 142.176 21.3581 142.176 20.9852V18.3523C142.176 17.9794 142.413 17.7759 142.842 17.7759C143.826 17.7759 144.583 18.3975 144.583 19.7083V20.9852C144.583 21.3581 144.786 21.5615 145.035 21.5615C145.261 21.5615 145.464 21.3581 145.464 20.9852V19.6066C145.464 19.2224 145.668 19.0303 146.12 19.0303C147.137 19.0303 147.882 19.7987 147.882 20.9626V21.6632C147.882 22.0361 148.086 22.2395 148.334 22.2395C148.56 22.2395 148.764 22.0361 148.764 21.6632V20.6349C148.764 20.3976 148.888 20.2733 149.137 20.2733C150.222 20.2733 151.171 21.4711 151.171 23.4374V25.4488C151.171 30.7373 148.538 33.5963 143.735 33.5963Z" fill="white"/>
<path d="M22.6298 65.0557C21.8498 65.0557 21.1448 64.9057 20.5148 64.6057C19.8948 64.3057 19.3998 63.8857 19.0298 63.3457C18.6698 62.7957 18.4798 62.1557 18.4598 61.4257H19.7798C19.8498 62.2557 20.1498 62.8757 20.6798 63.2857C21.2098 63.6957 21.8748 63.9007 22.6748 63.9007C23.3948 63.9007 23.9548 63.7457 24.3548 63.4357C24.7648 63.1257 24.9698 62.6907 24.9698 62.1307C24.9698 61.6207 24.8098 61.2307 24.4898 60.9607C24.1798 60.6907 23.7348 60.4757 23.1548 60.3157L21.4448 59.8357C20.5148 59.5757 19.8298 59.2257 19.3898 58.7857C18.9598 58.3357 18.7448 57.7407 18.7448 57.0007C18.7448 56.3507 18.8948 55.8057 19.1948 55.3657C19.5048 54.9157 19.9298 54.5807 20.4698 54.3607C21.0098 54.1407 21.6348 54.0307 22.3448 54.0307C23.0448 54.0307 23.6748 54.1407 24.2348 54.3607C24.7948 54.5707 25.2448 54.9057 25.5848 55.3657C25.9348 55.8157 26.1248 56.3807 26.1548 57.0607H24.8348C24.7848 56.4007 24.5248 55.9257 24.0548 55.6357C23.5948 55.3357 23.0098 55.1857 22.2998 55.1857C21.5898 55.1857 21.0398 55.3307 20.6498 55.6207C20.2598 55.9107 20.0648 56.3507 20.0648 56.9407C20.0648 57.3007 20.1398 57.5957 20.2898 57.8257C20.4498 58.0557 20.6648 58.2407 20.9348 58.3807C21.2148 58.5207 21.5798 58.6507 22.0298 58.7707L23.5898 59.1907C24.4898 59.4307 25.1648 59.7557 25.6148 60.1657C26.0748 60.5657 26.3048 61.1607 26.3048 61.9507C26.3048 62.6207 26.1398 63.1907 25.8098 63.6607C25.4898 64.1207 25.0498 64.4707 24.4898 64.7107C23.9398 64.9407 23.3198 65.0557 22.6298 65.0557ZM27.502 57.2407H28.792L30.712 63.4657L32.497 57.2407H33.937L35.722 63.4657L37.642 57.2407H38.932L36.472 64.7857H35.032L33.217 58.8307L31.402 64.7857H29.962L27.502 57.2407ZM40.5448 57.2407H41.7748V64.7857H40.5448V57.2407ZM40.4698 54.1957H41.8498V55.7107H40.4698V54.1957ZM44.2955 57.2407H45.4955V58.7707C45.6855 58.2707 46.0105 57.8657 46.4705 57.5557C46.9305 57.2457 47.4905 57.0907 48.1505 57.0907C48.7805 57.0907 49.3455 57.2307 49.8455 57.5107C50.3555 57.7907 50.7555 58.2207 51.0455 58.8007C51.3455 59.3807 51.4955 60.0957 51.4955 60.9457C51.4955 61.8057 51.3455 62.5257 51.0455 63.1057C50.7455 63.6757 50.3355 64.1007 49.8155 64.3807C49.2955 64.6507 48.7105 64.7857 48.0605 64.7857C47.4205 64.7857 46.8955 64.6657 46.4855 64.4257C46.0755 64.1757 45.7555 63.8557 45.5255 63.4657V67.6657H44.2955V57.2407ZM47.8955 63.6757C48.5955 63.6757 49.1605 63.4507 49.5905 63.0007C50.0205 62.5407 50.2355 61.8557 50.2355 60.9457C50.2355 60.0457 50.0205 59.3707 49.5905 58.9207C49.1705 58.4707 48.6105 58.2457 47.9105 58.2457C47.2005 58.2457 46.6255 58.4707 46.1855 58.9207C45.7455 59.3607 45.5255 60.0357 45.5255 60.9457C45.5255 61.8557 45.7455 62.5407 46.1855 63.0007C46.6255 63.4507 47.1955 63.6757 47.8955 63.6757ZM56.569 64.9507C55.869 64.9507 55.249 64.8107 54.709 64.5307C54.179 64.2407 53.759 63.8057 53.449 63.2257C53.149 62.6457 52.999 61.9307 52.999 61.0807C52.999 60.3007 53.149 59.6107 53.449 59.0107C53.749 58.4007 54.169 57.9307 54.709 57.6007C55.249 57.2607 55.879 57.0907 56.599 57.0907C57.659 57.0907 58.474 57.4507 59.044 58.1707C59.614 58.8807 59.899 59.8507 59.899 61.0807V61.3507H53.659V60.3007H58.639C58.579 59.6307 58.384 59.1107 58.054 58.7407C57.734 58.3707 57.249 58.1857 56.599 58.1857C55.819 58.1857 55.224 58.4457 54.814 58.9657C54.414 59.4757 54.214 60.1707 54.214 61.0507C54.214 61.9907 54.424 62.6957 54.844 63.1657C55.264 63.6257 55.849 63.8557 56.599 63.8557C57.089 63.8557 57.489 63.7557 57.799 63.5557C58.119 63.3457 58.374 63.0207 58.564 62.5807H59.839C59.589 63.3707 59.184 63.9657 58.624 64.3657C58.074 64.7557 57.389 64.9507 56.569 64.9507ZM67.6431 64.7857C67.0131 64.7857 66.5331 64.6257 66.2031 64.3057C65.8731 63.9757 65.7081 63.4957 65.7081 62.8657V58.3207H64.2531V57.2407H65.7081V55.1707L66.9381 54.8257V57.2407H68.6931V58.3207H66.9381V62.7007C66.9381 63.0507 67.0081 63.3057 67.1481 63.4657C67.2881 63.6257 67.5281 63.7057 67.8681 63.7057H68.8581V64.7857H67.6431ZM73.8559 64.9507C73.1259 64.9507 72.4859 64.7957 71.9359 64.4857C71.3859 64.1657 70.9609 63.7107 70.6609 63.1207C70.3609 62.5207 70.2109 61.8207 70.2109 61.0207C70.2109 60.2207 70.3609 59.5257 70.6609 58.9357C70.9609 58.3357 71.3859 57.8807 71.9359 57.5707C72.4859 57.2507 73.1259 57.0907 73.8559 57.0907C74.5859 57.0907 75.2259 57.2507 75.7759 57.5707C76.3259 57.8807 76.7509 58.3357 77.0509 58.9357C77.3509 59.5257 77.5009 60.2207 77.5009 61.0207C77.5009 61.8207 77.3509 62.5207 77.0509 63.1207C76.7509 63.7107 76.3259 64.1657 75.7759 64.4857C75.2259 64.7957 74.5859 64.9507 73.8559 64.9507ZM73.8559 63.8107C74.5859 63.8107 75.1659 63.5657 75.5959 63.0757C76.0259 62.5857 76.2409 61.9007 76.2409 61.0207C76.2409 60.1407 76.0259 59.4557 75.5959 58.9657C75.1659 58.4757 74.5859 58.2307 73.8559 58.2307C73.1259 58.2307 72.5459 58.4757 72.1159 58.9657C71.6859 59.4557 71.4709 60.1407 71.4709 61.0207C71.4709 61.9007 71.6859 62.5857 72.1159 63.0757C72.5459 63.5657 73.1259 63.8107 73.8559 63.8107ZM85.8805 64.9507C85.1805 64.9507 84.5605 64.8107 84.0205 64.5307C83.4905 64.2407 83.0705 63.8057 82.7605 63.2257C82.4605 62.6457 82.3105 61.9307 82.3105 61.0807C82.3105 60.3007 82.4605 59.6107 82.7605 59.0107C83.0605 58.4007 83.4805 57.9307 84.0205 57.6007C84.5605 57.2607 85.1905 57.0907 85.9105 57.0907C86.9705 57.0907 87.7855 57.4507 88.3555 58.1707C88.9255 58.8807 89.2105 59.8507 89.2105 61.0807V61.3507H82.9705V60.3007H87.9505C87.8905 59.6307 87.6955 59.1107 87.3655 58.7407C87.0455 58.3707 86.5605 58.1857 85.9105 58.1857C85.1305 58.1857 84.5355 58.4457 84.1255 58.9657C83.7255 59.4757 83.5255 60.1707 83.5255 61.0507C83.5255 61.9907 83.7355 62.6957 84.1555 63.1657C84.5755 63.6257 85.1605 63.8557 85.9105 63.8557C86.4005 63.8557 86.8005 63.7557 87.1105 63.5557C87.4305 63.3457 87.6855 63.0207 87.8755 62.5807H89.1505C88.9005 63.3707 88.4955 63.9657 87.9355 64.3657C87.3855 64.7557 86.7005 64.9507 85.8805 64.9507ZM93.1976 60.9157L90.4076 57.2407H91.9226L93.9176 59.9557L95.9126 57.2407H97.4276L94.6376 60.9157L97.5776 64.7857H96.0476L93.9176 61.8607L91.7876 64.7857H90.2576L93.1976 60.9157ZM99.3004 57.2407H100.5V58.7707C100.69 58.2707 101.015 57.8657 101.475 57.5557C101.935 57.2457 102.495 57.0907 103.155 57.0907C103.785 57.0907 104.35 57.2307 104.85 57.5107C105.36 57.7907 105.76 58.2207 106.05 58.8007C106.35 59.3807 106.5 60.0957 106.5 60.9457C106.5 61.8057 106.35 62.5257 106.05 63.1057C105.75 63.6757 105.34 64.1007 104.82 64.3807C104.3 64.6507 103.715 64.7857 103.065 64.7857C102.425 64.7857 101.9 64.6657 101.49 64.4257C101.08 64.1757 100.76 63.8557 100.53 63.4657V67.6657H99.3004V57.2407ZM102.9 63.6757C103.6 63.6757 104.165 63.4507 104.595 63.0007C105.025 62.5407 105.24 61.8557 105.24 60.9457C105.24 60.0457 105.025 59.3707 104.595 58.9207C104.175 58.4707 103.615 58.2457 102.915 58.2457C102.205 58.2457 101.63 58.4707 101.19 58.9207C100.75 59.3607 100.53 60.0357 100.53 60.9457C100.53 61.8557 100.75 62.5407 101.19 63.0007C101.63 63.4507 102.2 63.6757 102.9 63.6757ZM108.529 54.1207H109.759V64.7857H108.529V54.1207ZM115.428 64.9507C114.698 64.9507 114.058 64.7957 113.508 64.4857C112.958 64.1657 112.533 63.7107 112.233 63.1207C111.933 62.5207 111.783 61.8207 111.783 61.0207C111.783 60.2207 111.933 59.5257 112.233 58.9357C112.533 58.3357 112.958 57.8807 113.508 57.5707C114.058 57.2507 114.698 57.0907 115.428 57.0907C116.158 57.0907 116.798 57.2507 117.348 57.5707C117.898 57.8807 118.323 58.3357 118.623 58.9357C118.923 59.5257 119.073 60.2207 119.073 61.0207C119.073 61.8207 118.923 62.5207 118.623 63.1207C118.323 63.7107 117.898 64.1657 117.348 64.4857C116.798 64.7957 116.158 64.9507 115.428 64.9507ZM115.428 63.8107C116.158 63.8107 116.738 63.5657 117.168 63.0757C117.598 62.5857 117.813 61.9007 117.813 61.0207C117.813 60.1407 117.598 59.4557 117.168 58.9657C116.738 58.4757 116.158 58.2307 115.428 58.2307C114.698 58.2307 114.118 58.4757 113.688 58.9657C113.258 59.4557 113.043 60.1407 113.043 61.0207C113.043 61.9007 113.258 62.5857 113.688 63.0757C114.118 63.5657 114.698 63.8107 115.428 63.8107ZM121.097 57.2407H122.297V58.6657C122.477 58.1757 122.747 57.8007 123.107 57.5407C123.467 57.2807 123.927 57.1507 124.487 57.1507H125.027V58.3357H124.547C123.767 58.3357 123.202 58.5807 122.852 59.0707C122.502 59.5507 122.327 60.2157 122.327 61.0657V64.7857H121.097V57.2407ZM129.577 64.9507C128.877 64.9507 128.257 64.8107 127.717 64.5307C127.187 64.2407 126.767 63.8057 126.457 63.2257C126.157 62.6457 126.007 61.9307 126.007 61.0807C126.007 60.3007 126.157 59.6107 126.457 59.0107C126.757 58.4007 127.177 57.9307 127.717 57.6007C128.257 57.2607 128.887 57.0907 129.607 57.0907C130.667 57.0907 131.482 57.4507 132.052 58.1707C132.622 58.8807 132.907 59.8507 132.907 61.0807V61.3507H126.667V60.3007H131.647C131.587 59.6307 131.392 59.1107 131.062 58.7407C130.742 58.3707 130.257 58.1857 129.607 58.1857C128.827 58.1857 128.232 58.4457 127.822 58.9657C127.422 59.4757 127.222 60.1707 127.222 61.0507C127.222 61.9907 127.432 62.6957 127.852 63.1657C128.272 63.6257 128.857 63.8557 129.607 63.8557C130.097 63.8557 130.497 63.7557 130.807 63.5557C131.127 63.3457 131.382 63.0207 131.572 62.5807H132.847C132.597 63.3707 132.192 63.9657 131.632 64.3657C131.082 64.7557 130.397 64.9507 129.577 64.9507ZM140.651 64.7857C140.021 64.7857 139.541 64.6257 139.211 64.3057C138.881 63.9757 138.716 63.4957 138.716 62.8657V58.3207H137.261V57.2407H138.716V55.1707L139.946 54.8257V57.2407H141.701V58.3207H139.946V62.7007C139.946 63.0507 140.016 63.3057 140.156 63.4657C140.296 63.6257 140.536 63.7057 140.876 63.7057H141.866V64.7857H140.651ZM143.744 54.1207H144.974V58.6357C145.214 58.1457 145.554 57.7657 145.994 57.4957C146.444 57.2257 146.989 57.0907 147.629 57.0907C148.459 57.0907 149.094 57.3207 149.534 57.7807C149.974 58.2307 150.194 58.8657 150.194 59.6857V64.7857H148.964V59.8807C148.964 59.3307 148.809 58.9107 148.499 58.6207C148.189 58.3307 147.784 58.1857 147.284 58.1857C146.864 58.1857 146.474 58.2907 146.114 58.5007C145.764 58.7007 145.484 58.9957 145.274 59.3857C145.074 59.7757 144.974 60.2307 144.974 60.7507V64.7857H143.744V54.1207ZM155.71 64.9507C155.01 64.9507 154.39 64.8107 153.85 64.5307C153.32 64.2407 152.9 63.8057 152.59 63.2257C152.29 62.6457 152.14 61.9307 152.14 61.0807C152.14 60.3007 152.29 59.6107 152.59 59.0107C152.89 58.4007 153.31 57.9307 153.85 57.6007C154.39 57.2607 155.02 57.0907 155.74 57.0907C156.8 57.0907 157.615 57.4507 158.185 58.1707C158.755 58.8807 159.04 59.8507 159.04 61.0807V61.3507H152.8V60.3007H157.78C157.72 59.6307 157.525 59.1107 157.195 58.7407C156.875 58.3707 156.39 58.1857 155.74 58.1857C154.96 58.1857 154.365 58.4457 153.955 58.9657C153.555 59.4757 153.355 60.1707 153.355 61.0507C153.355 61.9907 153.565 62.6957 153.985 63.1657C154.405 63.6257 154.99 63.8557 155.74 63.8557C156.23 63.8557 156.63 63.7557 156.94 63.5557C157.26 63.3457 157.515 63.0207 157.705 62.5807H158.98C158.73 63.3707 158.325 63.9657 157.765 64.3657C157.215 64.7557 156.53 64.9507 155.71 64.9507ZM167.369 64.9507C166.599 64.9507 165.949 64.7807 165.419 64.4407C164.889 64.0907 164.494 63.6257 164.234 63.0457C163.974 62.4557 163.844 61.8007 163.844 61.0807C163.844 60.3407 163.984 59.6707 164.264 59.0707C164.544 58.4607 164.959 57.9807 165.509 57.6307C166.069 57.2707 166.739 57.0907 167.519 57.0907C168.429 57.0907 169.169 57.3307 169.739 57.8107C170.309 58.2807 170.624 58.9457 170.684 59.8057H169.424C169.394 59.2957 169.204 58.9057 168.854 58.6357C168.514 58.3657 168.064 58.2307 167.504 58.2307C166.694 58.2307 166.089 58.4907 165.689 59.0107C165.299 59.5207 165.104 60.1907 165.104 61.0207C165.104 61.8507 165.299 62.5257 165.689 63.0457C166.079 63.5557 166.659 63.8107 167.429 63.8107C168.009 63.8107 168.474 63.6707 168.824 63.3907C169.174 63.1007 169.374 62.6807 169.424 62.1307H170.684C170.604 63.0107 170.264 63.7007 169.664 64.2007C169.064 64.7007 168.299 64.9507 167.369 64.9507ZM175.824 64.9507C175.094 64.9507 174.454 64.7957 173.904 64.4857C173.354 64.1657 172.929 63.7107 172.629 63.1207C172.329 62.5207 172.179 61.8207 172.179 61.0207C172.179 60.2207 172.329 59.5257 172.629 58.9357C172.929 58.3357 173.354 57.8807 173.904 57.5707C174.454 57.2507 175.094 57.0907 175.824 57.0907C176.554 57.0907 177.194 57.2507 177.744 57.5707C178.294 57.8807 178.719 58.3357 179.019 58.9357C179.319 59.5257 179.469 60.2207 179.469 61.0207C179.469 61.8207 179.319 62.5207 179.019 63.1207C178.719 63.7107 178.294 64.1657 177.744 64.4857C177.194 64.7957 176.554 64.9507 175.824 64.9507ZM175.824 63.8107C176.554 63.8107 177.134 63.5657 177.564 63.0757C177.994 62.5857 178.209 61.9007 178.209 61.0207C178.209 60.1407 177.994 59.4557 177.564 58.9657C177.134 58.4757 176.554 58.2307 175.824 58.2307C175.094 58.2307 174.514 58.4757 174.084 58.9657C173.654 59.4557 173.439 60.1407 173.439 61.0207C173.439 61.9007 173.654 62.5857 174.084 63.0757C174.514 63.5657 175.094 63.8107 175.824 63.8107ZM181.493 54.1207H182.723V64.7857H181.493V54.1207ZM188.392 64.9507C187.662 64.9507 187.022 64.7957 186.472 64.4857C185.922 64.1657 185.497 63.7107 185.197 63.1207C184.897 62.5207 184.747 61.8207 184.747 61.0207C184.747 60.2207 184.897 59.5257 185.197 58.9357C185.497 58.3357 185.922 57.8807 186.472 57.5707C187.022 57.2507 187.662 57.0907 188.392 57.0907C189.122 57.0907 189.762 57.2507 190.312 57.5707C190.862 57.8807 191.287 58.3357 191.587 58.9357C191.887 59.5257 192.037 60.2207 192.037 61.0207C192.037 61.8207 191.887 62.5207 191.587 63.1207C191.287 63.7107 190.862 64.1657 190.312 64.4857C189.762 64.7957 189.122 64.9507 188.392 64.9507ZM188.392 63.8107C189.122 63.8107 189.702 63.5657 190.132 63.0757C190.562 62.5857 190.777 61.9007 190.777 61.0207C190.777 60.1407 190.562 59.4557 190.132 58.9657C189.702 58.4757 189.122 58.2307 188.392 58.2307C187.662 58.2307 187.082 58.4757 186.652 58.9657C186.222 59.4557 186.007 60.1407 186.007 61.0207C186.007 61.9007 186.222 62.5857 186.652 63.0757C187.082 63.5657 187.662 63.8107 188.392 63.8107ZM194.061 57.2407H195.261V58.6657C195.441 58.1757 195.711 57.8007 196.071 57.5407C196.431 57.2807 196.891 57.1507 197.451 57.1507H197.991V58.3357H197.511C196.731 58.3357 196.166 58.5807 195.816 59.0707C195.466 59.5507 195.291 60.2157 195.291 61.0657V64.7857H194.061V57.2407ZM199.035 57.2407H200.325L202.245 63.4657L204.03 57.2407H205.47L207.255 63.4657L209.175 57.2407H210.465L208.005 64.7857H206.565L204.75 58.8307L202.935 64.7857H201.495L199.035 57.2407ZM213.912 64.9507C213.192 64.9507 212.597 64.7607 212.127 64.3807C211.667 64.0007 211.437 63.4557 211.437 62.7457C211.437 62.0557 211.647 61.5357 212.067 61.1857C212.497 60.8257 213.057 60.6007 213.747 60.5107L215.532 60.2707C215.762 60.2407 215.952 60.1957 216.102 60.1357C216.262 60.0757 216.387 59.9857 216.477 59.8657C216.567 59.7357 216.612 59.5607 216.612 59.3407C216.612 58.9407 216.472 58.6357 216.192 58.4257C215.912 58.2057 215.492 58.0957 214.932 58.0957C214.322 58.0957 213.842 58.2107 213.492 58.4407C213.152 58.6707 212.947 59.0107 212.877 59.4607H211.617C211.717 58.6807 212.057 58.0907 212.637 57.6907C213.217 57.2907 213.987 57.0907 214.947 57.0907C215.907 57.0907 216.627 57.2907 217.107 57.6907C217.597 58.0907 217.842 58.7007 217.842 59.5207V64.7857H216.672V63.3457C216.422 63.8457 216.062 64.2407 215.592 64.5307C215.132 64.8107 214.572 64.9507 213.912 64.9507ZM214.152 63.8707C214.592 63.8707 214.997 63.7757 215.367 63.5857C215.747 63.3957 216.047 63.1257 216.267 62.7757C216.497 62.4157 216.612 62.0007 216.612 61.5307V60.4807L216.927 60.7207C216.687 60.8607 216.462 60.9707 216.252 61.0507C216.052 61.1207 215.742 61.1807 215.322 61.2307L214.197 61.3807C213.777 61.4307 213.417 61.5507 213.117 61.7407C212.827 61.9207 212.682 62.2307 212.682 62.6707C212.682 63.0707 212.817 63.3707 213.087 63.5707C213.357 63.7707 213.712 63.8707 214.152 63.8707ZM219.981 66.1657H220.761C221.171 66.1657 221.491 66.0807 221.721 65.9107C221.961 65.7507 222.146 65.5107 222.276 65.1907L222.471 64.6957L219.336 57.2407H220.671L223.056 63.1507L225.291 57.2407H226.581L223.326 65.5057C223.086 66.1157 222.771 66.5557 222.381 66.8257C221.991 67.1057 221.456 67.2457 220.776 67.2457H219.981V66.1657ZM230.776 64.9507C229.896 64.9507 229.136 64.7457 228.496 64.3357C227.856 63.9157 227.496 63.2957 227.416 62.4757H228.676C228.766 62.9857 229.006 63.3557 229.396 63.5857C229.796 63.8057 230.281 63.9157 230.851 63.9157C231.371 63.9157 231.776 63.8257 232.066 63.6457C232.356 63.4657 232.501 63.1907 232.501 62.8207C232.501 62.4707 232.371 62.2157 232.111 62.0557C231.851 61.8857 231.461 61.7507 230.941 61.6507L229.936 61.4557C229.216 61.3157 228.646 61.0907 228.226 60.7807C227.806 60.4707 227.596 59.9807 227.596 59.3107C227.596 58.5807 227.856 58.0307 228.376 57.6607C228.906 57.2807 229.606 57.0907 230.476 57.0907C231.376 57.0907 232.091 57.2907 232.621 57.6907C233.161 58.0807 233.466 58.6457 233.536 59.3857H232.276C232.236 58.9457 232.051 58.6207 231.721 58.4107C231.391 58.2007 230.956 58.0957 230.416 58.0957C229.896 58.0957 229.496 58.1907 229.216 58.3807C228.946 58.5707 228.811 58.8457 228.811 59.2057C228.811 59.5657 228.941 59.8307 229.201 60.0007C229.461 60.1707 229.841 60.3057 230.341 60.4057L231.196 60.5707C231.716 60.6707 232.151 60.7857 232.501 60.9157C232.851 61.0457 233.141 61.2507 233.371 61.5307C233.601 61.8107 233.716 62.1857 233.716 62.6557C233.716 63.4057 233.436 63.9757 232.876 64.3657C232.316 64.7557 231.616 64.9507 230.776 64.9507ZM242.093 64.9507C241.363 64.9507 240.723 64.7957 240.173 64.4857C239.623 64.1657 239.198 63.7107 238.898 63.1207C238.598 62.5207 238.448 61.8207 238.448 61.0207C238.448 60.2207 238.598 59.5257 238.898 58.9357C239.198 58.3357 239.623 57.8807 240.173 57.5707C240.723 57.2507 241.363 57.0907 242.093 57.0907C242.823 57.0907 243.463 57.2507 244.013 57.5707C244.563 57.8807 244.988 58.3357 245.288 58.9357C245.588 59.5257 245.738 60.2207 245.738 61.0207C245.738 61.8207 245.588 62.5207 245.288 63.1207C244.988 63.7107 244.563 64.1657 244.013 64.4857C243.463 64.7957 242.823 64.9507 242.093 64.9507ZM242.093 63.8107C242.823 63.8107 243.403 63.5657 243.833 63.0757C244.263 62.5857 244.478 61.9007 244.478 61.0207C244.478 60.1407 244.263 59.4557 243.833 58.9657C243.403 58.4757 242.823 58.2307 242.093 58.2307C241.363 58.2307 240.783 58.4757 240.353 58.9657C239.923 59.4557 239.708 60.1407 239.708 61.0207C239.708 61.9007 239.923 62.5857 240.353 63.0757C240.783 63.5657 241.363 63.8107 242.093 63.8107ZM248.257 58.3207H247.012V57.2407H248.257V56.1307C248.257 55.4507 248.412 54.9457 248.722 54.6157C249.032 54.2857 249.497 54.1207 250.117 54.1207H251.287V55.2007H250.372C250.042 55.2007 249.812 55.2757 249.682 55.4257C249.552 55.5757 249.487 55.8307 249.487 56.1907V57.2407H251.092V58.3207H249.487V64.7857H248.257V58.3207ZM63.4113 85.1657H64.1913C64.6013 85.1657 64.9213 85.0807 65.1513 84.9107C65.3913 84.7507 65.5763 84.5107 65.7063 84.1907L65.9013 83.6957L62.7663 76.2407H64.1013L66.4863 82.1507L68.7213 76.2407H70.0113L66.7563 84.5057C66.5163 85.1157 66.2013 85.5557 65.8113 85.8257C65.4213 86.1057 64.8863 86.2457 64.2063 86.2457H63.4113V85.1657ZM74.7129 83.9507C73.9829 83.9507 73.3429 83.7957 72.7929 83.4857C72.2429 83.1657 71.8179 82.7107 71.5179 82.1207C71.2179 81.5207 71.0679 80.8207 71.0679 80.0207C71.0679 79.2207 71.2179 78.5257 71.5179 77.9357C71.8179 77.3357 72.2429 76.8807 72.7929 76.5707C73.3429 76.2507 73.9829 76.0907 74.7129 76.0907C75.4429 76.0907 76.0829 76.2507 76.6329 76.5707C77.1829 76.8807 77.6079 77.3357 77.9079 77.9357C78.2079 78.5257 78.3579 79.2207 78.3579 80.0207C78.3579 80.8207 78.2079 81.5207 77.9079 82.1207C77.6079 82.7107 77.1829 83.1657 76.6329 83.4857C76.0829 83.7957 75.4429 83.9507 74.7129 83.9507ZM74.7129 82.8107C75.4429 82.8107 76.0229 82.5657 76.4529 82.0757C76.8829 81.5857 77.0979 80.9007 77.0979 80.0207C77.0979 79.1407 76.8829 78.4557 76.4529 77.9657C76.0229 77.4757 75.4429 77.2307 74.7129 77.2307C73.9829 77.2307 73.4029 77.4757 72.9729 77.9657C72.5429 78.4557 72.3279 79.1407 72.3279 80.0207C72.3279 80.9007 72.5429 81.5857 72.9729 82.0757C73.4029 82.5657 73.9829 82.8107 74.7129 82.8107ZM82.8569 83.9507C82.0669 83.9507 81.4419 83.7207 80.9819 83.2607C80.5319 82.8007 80.3069 82.1657 80.3069 81.3557V76.2407H81.5369V81.1907C81.5369 81.7407 81.6869 82.1607 81.9869 82.4507C82.2869 82.7407 82.6819 82.8857 83.1719 82.8857C83.8319 82.8857 84.3619 82.6357 84.7619 82.1357C85.1719 81.6257 85.3769 80.9907 85.3769 80.2307V76.2407H86.6069V83.7857H85.4069V82.3907C85.1669 82.8907 84.8319 83.2757 84.4019 83.5457C83.9719 83.8157 83.4569 83.9507 82.8569 83.9507ZM89.1563 76.2407H90.3563V77.6657C90.5363 77.1757 90.8063 76.8007 91.1663 76.5407C91.5263 76.2807 91.9863 76.1507 92.5463 76.1507H93.0863V77.3357H92.6063C91.8263 77.3357 91.2613 77.5807 90.9113 78.0707C90.5613 78.5507 90.3863 79.2157 90.3863 80.0657V83.7857H89.1563V76.2407ZM97.2979 73.2857H98.6179L100.868 82.0757L103.403 73.2857H104.843L107.378 82.0757L109.628 73.2857H110.948L108.143 83.7857H106.703L104.123 75.1007L101.543 83.7857H100.103L97.2979 73.2857ZM115.274 83.9507C114.544 83.9507 113.904 83.7957 113.354 83.4857C112.804 83.1657 112.379 82.7107 112.079 82.1207C111.779 81.5207 111.629 80.8207 111.629 80.0207C111.629 79.2207 111.779 78.5257 112.079 77.9357C112.379 77.3357 112.804 76.8807 113.354 76.5707C113.904 76.2507 114.544 76.0907 115.274 76.0907C116.004 76.0907 116.644 76.2507 117.194 76.5707C117.744 76.8807 118.169 77.3357 118.469 77.9357C118.769 78.5257 118.919 79.2207 118.919 80.0207C118.919 80.8207 118.769 81.5207 118.469 82.1207C118.169 82.7107 117.744 83.1657 117.194 83.4857C116.644 83.7957 116.004 83.9507 115.274 83.9507ZM115.274 82.8107C116.004 82.8107 116.584 82.5657 117.014 82.0757C117.444 81.5857 117.659 80.9007 117.659 80.0207C117.659 79.1407 117.444 78.4557 117.014 77.9657C116.584 77.4757 116.004 77.2307 115.274 77.2307C114.544 77.2307 113.964 77.4757 113.534 77.9657C113.104 78.4557 112.889 79.1407 112.889 80.0207C112.889 80.9007 113.104 81.5857 113.534 82.0757C113.964 82.5657 114.544 82.8107 115.274 82.8107ZM120.943 76.2407H122.143V77.6657C122.323 77.1757 122.593 76.8007 122.953 76.5407C123.313 76.2807 123.773 76.1507 124.333 76.1507H124.873V77.3357H124.393C123.613 77.3357 123.048 77.5807 122.698 78.0707C122.348 78.5507 122.173 79.2157 122.173 80.0657V83.7857H120.943V76.2407ZM126.525 73.1207H127.755V83.7857H126.525V73.1207ZM133.184 83.9507C132.414 83.9507 131.774 83.7657 131.264 83.3957C130.754 83.0257 130.379 82.5457 130.139 81.9557C129.899 81.3657 129.779 80.7257 129.779 80.0357C129.779 79.3457 129.904 78.7007 130.154 78.1007C130.404 77.5007 130.784 77.0157 131.294 76.6457C131.814 76.2757 132.459 76.0907 133.229 76.0907C133.859 76.0907 134.379 76.2157 134.789 76.4657C135.209 76.7157 135.529 77.0507 135.749 77.4707V73.1207H136.979V83.7857H135.779V82.3007C135.579 82.8007 135.269 83.2007 134.849 83.5007C134.439 83.8007 133.884 83.9507 133.184 83.9507ZM133.364 82.8107C134.174 82.8107 134.774 82.5407 135.164 82.0007C135.554 81.4507 135.749 80.7707 135.749 79.9607C135.749 79.1707 135.554 78.5157 135.164 77.9957C134.774 77.4657 134.179 77.2007 133.379 77.2007C132.579 77.2007 131.989 77.4707 131.609 78.0107C131.229 78.5407 131.039 79.2057 131.039 80.0057C131.039 80.8157 131.224 81.4857 131.594 82.0157C131.974 82.5457 132.564 82.8107 133.364 82.8107ZM142.532 83.9507C141.762 83.9507 141.112 83.7807 140.582 83.4407C140.052 83.0907 139.657 82.6257 139.397 82.0457C139.137 81.4557 139.007 80.8007 139.007 80.0807C139.007 79.3407 139.147 78.6707 139.427 78.0707C139.707 77.4607 140.122 76.9807 140.672 76.6307C141.232 76.2707 141.902 76.0907 142.682 76.0907C143.592 76.0907 144.332 76.3307 144.902 76.8107C145.472 77.2807 145.787 77.9457 145.847 78.8057H144.587C144.557 78.2957 144.367 77.9057 144.017 77.6357C143.677 77.3657 143.227 77.2307 142.667 77.2307C141.857 77.2307 141.252 77.4907 140.852 78.0107C140.462 78.5207 140.267 79.1907 140.267 80.0207C140.267 80.8507 140.462 81.5257 140.852 82.0457C141.242 82.5557 141.822 82.8107 142.592 82.8107C143.172 82.8107 143.637 82.6707 143.987 82.3907C144.337 82.1007 144.537 81.6807 144.587 81.1307H145.847C145.767 82.0107 145.427 82.7007 144.827 83.2007C144.227 83.7007 143.462 83.9507 142.532 83.9507ZM150.987 83.9507C150.257 83.9507 149.617 83.7957 149.067 83.4857C148.517 83.1657 148.092 82.7107 147.792 82.1207C147.492 81.5207 147.342 80.8207 147.342 80.0207C147.342 79.2207 147.492 78.5257 147.792 77.9357C148.092 77.3357 148.517 76.8807 149.067 76.5707C149.617 76.2507 150.257 76.0907 150.987 76.0907C151.717 76.0907 152.357 76.2507 152.907 76.5707C153.457 76.8807 153.882 77.3357 154.182 77.9357C154.482 78.5257 154.632 79.2207 154.632 80.0207C154.632 80.8207 154.482 81.5207 154.182 82.1207C153.882 82.7107 153.457 83.1657 152.907 83.4857C152.357 83.7957 151.717 83.9507 150.987 83.9507ZM150.987 82.8107C151.717 82.8107 152.297 82.5657 152.727 82.0757C153.157 81.5857 153.372 80.9007 153.372 80.0207C153.372 79.1407 153.157 78.4557 152.727 77.9657C152.297 77.4757 151.717 77.2307 150.987 77.2307C150.257 77.2307 149.677 77.4757 149.247 77.9657C148.817 78.4557 148.602 79.1407 148.602 80.0207C148.602 80.9007 148.817 81.5857 149.247 82.0757C149.677 82.5657 150.257 82.8107 150.987 82.8107ZM156.626 76.2407H157.856V83.7857H156.626V76.2407ZM156.551 73.1957H157.931V74.7107H156.551V73.1957ZM160.377 76.2407H161.577V77.6657C161.817 77.1757 162.162 76.7907 162.612 76.5107C163.062 76.2307 163.612 76.0907 164.262 76.0907C165.092 76.0907 165.727 76.3207 166.167 76.7807C166.607 77.2307 166.827 77.8657 166.827 78.6857V83.7857H165.597V78.8807C165.597 78.3307 165.442 77.9107 165.132 77.6207C164.822 77.3307 164.417 77.1857 163.917 77.1857C163.497 77.1857 163.107 77.2907 162.747 77.5007C162.397 77.7007 162.117 77.9957 161.907 78.3857C161.707 78.7757 161.607 79.2307 161.607 79.7507V83.7857H160.377V76.2407ZM173.543 77.3207H172.298V76.2407H173.543V75.1307C173.543 74.4507 173.698 73.9457 174.008 73.6157C174.318 73.2857 174.783 73.1207 175.403 73.1207H176.573V74.2007H175.658C175.328 74.2007 175.098 74.2757 174.968 74.4257C174.838 74.5757 174.773 74.8307 174.773 75.1907V76.2407H176.378V77.3207H174.773V83.7857H173.543V77.3207ZM178.189 76.2407H179.419V83.7857H178.189V76.2407ZM178.114 73.1957H179.494V74.7107H178.114V73.1957ZM181.94 73.1207H183.17V83.7857H181.94V73.1207ZM188.134 83.7857C187.504 83.7857 187.024 83.6257 186.694 83.3057C186.364 82.9757 186.199 82.4957 186.199 81.8657V77.3207H184.744V76.2407H186.199V74.1707L187.429 73.8257V76.2407H189.184V77.3207H187.429V81.7007C187.429 82.0507 187.499 82.3057 187.639 82.4657C187.779 82.6257 188.019 82.7057 188.359 82.7057H189.349V83.7857H188.134ZM194.272 83.9507C193.572 83.9507 192.952 83.8107 192.412 83.5307C191.882 83.2407 191.462 82.8057 191.152 82.2257C190.852 81.6457 190.702 80.9307 190.702 80.0807C190.702 79.3007 190.852 78.6107 191.152 78.0107C191.452 77.4007 191.872 76.9307 192.412 76.6007C192.952 76.2607 193.582 76.0907 194.302 76.0907C195.362 76.0907 196.177 76.4507 196.747 77.1707C197.317 77.8807 197.602 78.8507 197.602 80.0807V80.3507H191.362V79.3007H196.342C196.282 78.6307 196.087 78.1107 195.757 77.7407C195.437 77.3707 194.952 77.1857 194.302 77.1857C193.522 77.1857 192.927 77.4457 192.517 77.9657C192.117 78.4757 191.917 79.1707 191.917 80.0507C191.917 80.9907 192.127 81.6957 192.547 82.1657C192.967 82.6257 193.552 82.8557 194.302 82.8557C194.792 82.8557 195.192 82.7557 195.502 82.5557C195.822 82.3457 196.077 82.0207 196.267 81.5807H197.542C197.292 82.3707 196.887 82.9657 196.327 83.3657C195.777 83.7557 195.092 83.9507 194.272 83.9507ZM199.62 76.2407H200.82V77.6657C201 77.1757 201.27 76.8007 201.63 76.5407C201.99 76.2807 202.45 76.1507 203.01 76.1507H203.55V77.3357H203.07C202.29 77.3357 201.725 77.5807 201.375 78.0707C201.025 78.5507 200.85 79.2157 200.85 80.0657V83.7857H199.62V76.2407ZM204.079 82.1657H205.639V83.7857H204.079V82.1657Z" fill="white" fill-opacity="0.66"/>
</svg>
