<svg width="55" height="55" viewBox="0 0 55 55" fill="none" xmlns="http://www.w3.org/2000/svg">
<rect x="1" y="1" width="53" height="53" rx="26.5" fill="url(#paint0_linear_666_7835)"/>
<rect x="1" y="1" width="53" height="53" rx="26.5" stroke="white" stroke-width="2"/>
<path fill-rule="evenodd" clip-rule="evenodd" d="M38.0098 26.9349L38.4941 27.5L38.0097 28.0652C38.0075 28.0678 38.0052 28.0705 38.0029 28.0731L31.8645 35.2346C31.55 35.6015 30.9976 35.644 30.6307 35.3295C30.2638 35.015 30.2213 34.4626 30.5358 34.0957L35.4393 28.375L17.3817 28.375C16.8984 28.375 16.5067 27.9833 16.5067 27.5C16.5067 27.0168 16.8984 26.625 17.3817 26.625H35.4393L30.5358 20.9043C30.2213 20.5374 30.2638 19.985 30.6307 19.6705C30.9976 19.356 31.55 19.3985 31.8645 19.7654L38.0028 26.9268C38.0052 26.9295 38.0075 26.9322 38.0098 26.9349Z" fill="#030A74"/>
<defs>
<linearGradient id="paint0_linear_666_7835" x1="27.5" y1="0" x2="27.5" y2="55" gradientUnits="userSpaceOnUse">
<stop stop-color="#E3E3E3"/>
<stop offset="1" stop-color="white"/>
</linearGradient>
</defs>
</svg>
