<svg width="265" height="59" viewBox="0 0 265 59" fill="none" xmlns="http://www.w3.org/2000/svg">
<path d="M118.499 15.946L124.279 2.49176L123.482 0.598206H126.795L134.096 18.0389H127.319L129.91 15.9709L128.34 12.2585H121.04L119.545 15.7965L122.759 18.0389H116.381L118.499 15.946ZM127.991 11.4363L124.727 3.5382L121.389 11.4363H127.991Z" fill="white"/>
<path d="M143.437 15.7467C142.856 16.5605 142.2 17.1917 141.469 17.6402C140.754 18.0887 140.007 18.3129 139.226 18.3129C138.28 18.3129 137.466 18.0056 136.785 17.3911C136.104 16.7765 135.763 15.9543 135.763 14.9244C135.763 14.0275 136.037 13.305 136.585 12.7568C137.133 12.1921 137.939 11.7436 139.002 11.4114C140.065 11.0626 141.502 10.747 143.312 10.4646V9.21887C143.312 8.23887 143.088 7.4748 142.64 6.92667C142.191 6.37853 141.643 6.07955 140.995 6.02972L137.956 9.69226L135.838 7.40006C136.469 6.96819 137.05 6.61938 137.582 6.35362C138.13 6.07125 138.703 5.85531 139.301 5.70582C139.916 5.53972 140.572 5.45667 141.269 5.45667C142.714 5.45667 143.885 5.81379 144.782 6.52803C145.696 7.22565 146.153 8.21395 146.153 9.49293V15.4477L148.619 16.818L143.437 18.4375V15.7467ZM140.746 16.3446C141.676 16.3446 142.532 15.9044 143.312 15.0241V11.0875C141.734 11.4031 140.597 11.835 139.899 12.3831C139.201 12.9146 138.853 13.6039 138.853 14.4511C138.853 15.0989 139.035 15.5806 139.401 15.8961C139.766 16.1951 140.215 16.3446 140.746 16.3446Z" fill="white"/>
<path d="M1.425 43.9018H5.88C6.57 43.9018 7.155 44.0468 7.635 44.3368C8.115 44.6168 8.475 44.9918 8.715 45.4618C8.955 45.9218 9.075 46.4218 9.075 46.9618C9.075 47.5418 8.945 48.0818 8.685 48.5818C8.425 49.0718 8.04 49.4668 7.53 49.7668C7.02 50.0568 6.41 50.2018 5.7 50.2018H2.685V54.4018H1.425V43.9018ZM5.595 49.0168C6.275 49.0168 6.805 48.8418 7.185 48.4918C7.565 48.1418 7.755 47.6568 7.755 47.0368C7.755 46.4368 7.575 45.9618 7.215 45.6118C6.855 45.2618 6.335 45.0868 5.655 45.0868H2.685V49.0168H5.595ZM13.695 54.5668C12.995 54.5668 12.375 54.4268 11.835 54.1468C11.305 53.8568 10.885 53.4218 10.575 52.8418C10.275 52.2618 10.125 51.5468 10.125 50.6968C10.125 49.9168 10.275 49.2268 10.575 48.6268C10.875 48.0168 11.295 47.5468 11.835 47.2168C12.375 46.8768 13.005 46.7068 13.725 46.7068C14.785 46.7068 15.6 47.0668 16.17 47.7868C16.74 48.4968 17.025 49.4668 17.025 50.6968V50.9668H10.785V49.9168H15.765C15.705 49.2468 15.51 48.7268 15.18 48.3568C14.86 47.9868 14.375 47.8018 13.725 47.8018C12.945 47.8018 12.35 48.0618 11.94 48.5818C11.54 49.0918 11.34 49.7868 11.34 50.6668C11.34 51.6068 11.55 52.3118 11.97 52.7818C12.39 53.2418 12.975 53.4718 13.725 53.4718C14.215 53.4718 14.615 53.3718 14.925 53.1718C15.245 52.9618 15.5 52.6368 15.69 52.1968H16.965C16.715 52.9868 16.31 53.5818 15.75 53.9818C15.2 54.3718 14.515 54.5668 13.695 54.5668ZM19.0436 46.8568H20.2436V48.2818C20.4236 47.7918 20.6936 47.4168 21.0536 47.1568C21.4136 46.8968 21.8736 46.7668 22.4336 46.7668H22.9736V47.9518H22.4936C21.7136 47.9518 21.1486 48.1968 20.7986 48.6868C20.4486 49.1668 20.2736 49.8318 20.2736 50.6818V54.4018H19.0436V46.8568ZM27.3846 54.5668C26.5046 54.5668 25.7446 54.3618 25.1046 53.9518C24.4646 53.5318 24.1046 52.9118 24.0246 52.0918H25.2846C25.3746 52.6018 25.6146 52.9718 26.0046 53.2018C26.4046 53.4218 26.8896 53.5318 27.4596 53.5318C27.9796 53.5318 28.3846 53.4418 28.6746 53.2618C28.9646 53.0818 29.1096 52.8068 29.1096 52.4368C29.1096 52.0868 28.9796 51.8318 28.7196 51.6718C28.4596 51.5018 28.0696 51.3668 27.5496 51.2668L26.5446 51.0718C25.8246 50.9318 25.2546 50.7068 24.8346 50.3968C24.4146 50.0868 24.2046 49.5968 24.2046 48.9268C24.2046 48.1968 24.4646 47.6468 24.9846 47.2768C25.5146 46.8968 26.2146 46.7068 27.0846 46.7068C27.9846 46.7068 28.6996 46.9068 29.2296 47.3068C29.7696 47.6968 30.0746 48.2618 30.1446 49.0018H28.8846C28.8446 48.5618 28.6596 48.2368 28.3296 48.0268C27.9996 47.8168 27.5646 47.7118 27.0246 47.7118C26.5046 47.7118 26.1046 47.8068 25.8246 47.9968C25.5546 48.1868 25.4196 48.4618 25.4196 48.8218C25.4196 49.1818 25.5496 49.4468 25.8096 49.6168C26.0696 49.7868 26.4496 49.9218 26.9496 50.0218L27.8046 50.1868C28.3246 50.2868 28.7596 50.4018 29.1096 50.5318C29.4596 50.6618 29.7496 50.8668 29.9796 51.1468C30.2096 51.4268 30.3246 51.8018 30.3246 52.2718C30.3246 53.0218 30.0446 53.5918 29.4846 53.9818C28.9246 54.3718 28.2246 54.5668 27.3846 54.5668ZM35.3911 54.5668C34.6611 54.5668 34.0211 54.4118 33.4711 54.1018C32.9211 53.7818 32.4961 53.3268 32.1961 52.7368C31.8961 52.1368 31.7461 51.4368 31.7461 50.6368C31.7461 49.8368 31.8961 49.1418 32.1961 48.5518C32.4961 47.9518 32.9211 47.4968 33.4711 47.1868C34.0211 46.8668 34.6611 46.7068 35.3911 46.7068C36.1211 46.7068 36.7611 46.8668 37.3111 47.1868C37.8611 47.4968 38.2861 47.9518 38.5861 48.5518C38.8861 49.1418 39.0361 49.8368 39.0361 50.6368C39.0361 51.4368 38.8861 52.1368 38.5861 52.7368C38.2861 53.3268 37.8611 53.7818 37.3111 54.1018C36.7611 54.4118 36.1211 54.5668 35.3911 54.5668ZM35.3911 53.4268C36.1211 53.4268 36.7011 53.1818 37.1311 52.6918C37.5611 52.2018 37.7761 51.5168 37.7761 50.6368C37.7761 49.7568 37.5611 49.0718 37.1311 48.5818C36.7011 48.0918 36.1211 47.8468 35.3911 47.8468C34.6611 47.8468 34.0811 48.0918 33.6511 48.5818C33.2211 49.0718 33.0061 49.7568 33.0061 50.6368C33.0061 51.5168 33.2211 52.2018 33.6511 52.6918C34.0811 53.1818 34.6611 53.4268 35.3911 53.4268ZM41.0602 46.8568H42.2602V48.2818C42.5002 47.7918 42.8452 47.4068 43.2952 47.1268C43.7452 46.8468 44.2952 46.7068 44.9452 46.7068C45.7752 46.7068 46.4102 46.9368 46.8502 47.3968C47.2902 47.8468 47.5102 48.4818 47.5102 49.3018V54.4018H46.2802V49.4968C46.2802 48.9468 46.1252 48.5268 45.8152 48.2368C45.5052 47.9468 45.1002 47.8018 44.6002 47.8018C44.1802 47.8018 43.7902 47.9068 43.4302 48.1168C43.0802 48.3168 42.8002 48.6118 42.5902 49.0018C42.3902 49.3918 42.2902 49.8468 42.2902 50.3668V54.4018H41.0602V46.8568ZM51.9311 54.5668C51.2111 54.5668 50.6161 54.3768 50.1461 53.9968C49.6861 53.6168 49.4561 53.0718 49.4561 52.3618C49.4561 51.6718 49.6661 51.1518 50.0861 50.8018C50.5161 50.4418 51.0761 50.2168 51.7661 50.1268L53.5511 49.8868C53.7811 49.8568 53.9711 49.8118 54.1211 49.7518C54.2811 49.6918 54.4061 49.6018 54.4961 49.4818C54.5861 49.3518 54.6311 49.1768 54.6311 48.9568C54.6311 48.5568 54.4911 48.2518 54.2111 48.0418C53.9311 47.8218 53.5111 47.7118 52.9511 47.7118C52.3411 47.7118 51.8611 47.8268 51.5111 48.0568C51.1711 48.2868 50.9661 48.6268 50.8961 49.0768H49.6361C49.7361 48.2968 50.0761 47.7068 50.6561 47.3068C51.2361 46.9068 52.0061 46.7068 52.9661 46.7068C53.9261 46.7068 54.6461 46.9068 55.1261 47.3068C55.6161 47.7068 55.8611 48.3168 55.8611 49.1368V54.4018H54.6911V52.9618C54.4411 53.4618 54.0811 53.8568 53.6111 54.1468C53.1511 54.4268 52.5911 54.5668 51.9311 54.5668ZM52.1711 53.4868C52.6111 53.4868 53.0161 53.3918 53.3861 53.2018C53.7661 53.0118 54.0661 52.7418 54.2861 52.3918C54.5161 52.0318 54.6311 51.6168 54.6311 51.1468V50.0968L54.9461 50.3368C54.7061 50.4768 54.4811 50.5868 54.2711 50.6668C54.0711 50.7368 53.7611 50.7968 53.3411 50.8468L52.2161 50.9968C51.7961 51.0468 51.4361 51.1668 51.1361 51.3568C50.8461 51.5368 50.7011 51.8468 50.7011 52.2868C50.7011 52.6868 50.8361 52.9868 51.1061 53.1868C51.3761 53.3868 51.7311 53.4868 52.1711 53.4868ZM58.3307 43.7368H59.5607V54.4018H58.3307V43.7368ZM62.08 46.8568H63.31V54.4018H62.08V46.8568ZM62.005 43.8118H63.385V45.3268H62.005V43.8118ZM65.3807 53.3818L69.9707 47.9368H65.3957V46.8568H71.5307V47.8768L66.9557 53.3218H71.6957V54.4018H65.3807V53.3818ZM76.3903 54.5668C75.6903 54.5668 75.0703 54.4268 74.5303 54.1468C74.0003 53.8568 73.5803 53.4218 73.2703 52.8418C72.9703 52.2618 72.8203 51.5468 72.8203 50.6968C72.8203 49.9168 72.9703 49.2268 73.2703 48.6268C73.5703 48.0168 73.9903 47.5468 74.5303 47.2168C75.0703 46.8768 75.7003 46.7068 76.4203 46.7068C77.4803 46.7068 78.2953 47.0668 78.8653 47.7868C79.4353 48.4968 79.7203 49.4668 79.7203 50.6968V50.9668H73.4803V49.9168H78.4603C78.4003 49.2468 78.2053 48.7268 77.8753 48.3568C77.5553 47.9868 77.0703 47.8018 76.4203 47.8018C75.6403 47.8018 75.0453 48.0618 74.6353 48.5818C74.2353 49.0918 74.0353 49.7868 74.0353 50.6668C74.0353 51.6068 74.2453 52.3118 74.6653 52.7818C75.0853 53.2418 75.6703 53.4718 76.4203 53.4718C76.9103 53.4718 77.3103 53.3718 77.6203 53.1718C77.9403 52.9618 78.1953 52.6368 78.3853 52.1968H79.6603C79.4103 52.9868 79.0053 53.5818 78.4453 53.9818C77.8953 54.3718 77.2103 54.5668 76.3903 54.5668ZM85.3124 46.8568H86.5424V54.4018H85.3124V46.8568ZM85.2374 43.8118H86.6174V45.3268H85.2374V43.8118ZM91.4781 54.4018C90.8481 54.4018 90.3681 54.2418 90.0381 53.9218C89.7081 53.5918 89.5431 53.1118 89.5431 52.4818V47.9368H88.0881V46.8568H89.5431V44.7868L90.7731 44.4418V46.8568H92.5281V47.9368H90.7731V52.3168C90.7731 52.6668 90.8431 52.9218 90.9831 53.0818C91.1231 53.2418 91.3631 53.3218 91.7031 53.3218H92.6931V54.4018H91.4781ZM97.1279 46.8568H98.4179L100.338 53.0818L102.123 46.8568H103.563L105.348 53.0818L107.268 46.8568H108.558L106.098 54.4018H104.658L102.843 48.4468L101.028 54.4018H99.5879L97.1279 46.8568ZM110.171 46.8568H111.401V54.4018H110.171V46.8568ZM110.096 43.8118H111.476V45.3268H110.096V43.8118ZM116.336 54.4018C115.706 54.4018 115.226 54.2418 114.896 53.9218C114.566 53.5918 114.401 53.1118 114.401 52.4818V47.9368H112.946V46.8568H114.401V44.7868L115.631 44.4418V46.8568H117.386V47.9368H115.631V52.3168C115.631 52.6668 115.701 52.9218 115.841 53.0818C115.981 53.2418 116.221 53.3218 116.561 53.3218H117.551V54.4018H116.336ZM119.429 43.7368H120.659V48.2518C120.899 47.7618 121.239 47.3818 121.679 47.1118C122.129 46.8418 122.674 46.7068 123.314 46.7068C124.144 46.7068 124.779 46.9368 125.219 47.3968C125.659 47.8468 125.879 48.4818 125.879 49.3018V54.4018H124.649V49.4968C124.649 48.9468 124.494 48.5268 124.184 48.2368C123.874 47.9468 123.469 47.8018 122.969 47.8018C122.549 47.8018 122.159 47.9068 121.799 48.1168C121.449 48.3168 121.169 48.6118 120.959 49.0018C120.759 49.3918 120.659 49.8468 120.659 50.3668V54.4018H119.429V43.7368ZM134.197 54.5668C133.477 54.5668 132.882 54.3768 132.412 53.9968C131.952 53.6168 131.722 53.0718 131.722 52.3618C131.722 51.6718 131.932 51.1518 132.352 50.8018C132.782 50.4418 133.342 50.2168 134.032 50.1268L135.817 49.8868C136.047 49.8568 136.237 49.8118 136.387 49.7518C136.547 49.6918 136.672 49.6018 136.762 49.4818C136.852 49.3518 136.897 49.1768 136.897 48.9568C136.897 48.5568 136.757 48.2518 136.477 48.0418C136.197 47.8218 135.777 47.7118 135.217 47.7118C134.607 47.7118 134.127 47.8268 133.777 48.0568C133.437 48.2868 133.232 48.6268 133.162 49.0768H131.902C132.002 48.2968 132.342 47.7068 132.922 47.3068C133.502 46.9068 134.272 46.7068 135.232 46.7068C136.192 46.7068 136.912 46.9068 137.392 47.3068C137.882 47.7068 138.127 48.3168 138.127 49.1368V54.4018H136.957V52.9618C136.707 53.4618 136.347 53.8568 135.877 54.1468C135.417 54.4268 134.857 54.5668 134.197 54.5668ZM134.437 53.4868C134.877 53.4868 135.282 53.3918 135.652 53.2018C136.032 53.0118 136.332 52.7418 136.552 52.3918C136.782 52.0318 136.897 51.6168 136.897 51.1468V50.0968L137.212 50.3368C136.972 50.4768 136.747 50.5868 136.537 50.6668C136.337 50.7368 136.027 50.7968 135.607 50.8468L134.482 50.9968C134.062 51.0468 133.702 51.1668 133.402 51.3568C133.112 51.5368 132.967 51.8468 132.967 52.2868C132.967 52.6868 133.102 52.9868 133.372 53.1868C133.642 53.3868 133.997 53.4868 134.437 53.4868ZM146.907 54.5668C146.137 54.5668 145.487 54.3968 144.957 54.0568C144.427 53.7068 144.032 53.2418 143.772 52.6618C143.512 52.0718 143.382 51.4168 143.382 50.6968C143.382 49.9568 143.522 49.2868 143.802 48.6868C144.082 48.0768 144.497 47.5968 145.047 47.2468C145.607 46.8868 146.277 46.7068 147.057 46.7068C147.967 46.7068 148.707 46.9468 149.277 47.4268C149.847 47.8968 150.162 48.5618 150.222 49.4218H148.962C148.932 48.9118 148.742 48.5218 148.392 48.2518C148.052 47.9818 147.602 47.8468 147.042 47.8468C146.232 47.8468 145.627 48.1068 145.227 48.6268C144.837 49.1368 144.642 49.8068 144.642 50.6368C144.642 51.4668 144.837 52.1418 145.227 52.6618C145.617 53.1718 146.197 53.4268 146.967 53.4268C147.547 53.4268 148.012 53.2868 148.362 53.0068C148.712 52.7168 148.912 52.2968 148.962 51.7468H150.222C150.142 52.6268 149.802 53.3168 149.202 53.8168C148.602 54.3168 147.837 54.5668 146.907 54.5668ZM154.717 54.5668C153.927 54.5668 153.302 54.3368 152.842 53.8768C152.392 53.4168 152.167 52.7818 152.167 51.9718V46.8568H153.397V51.8068C153.397 52.3568 153.547 52.7768 153.847 53.0668C154.147 53.3568 154.542 53.5018 155.032 53.5018C155.692 53.5018 156.222 53.2518 156.622 52.7518C157.032 52.2418 157.237 51.6068 157.237 50.8468V46.8568H158.467V54.4018H157.267V53.0068C157.027 53.5068 156.692 53.8918 156.262 54.1618C155.832 54.4318 155.317 54.5668 154.717 54.5668ZM163.776 54.5668C162.896 54.5668 162.136 54.3618 161.496 53.9518C160.856 53.5318 160.496 52.9118 160.416 52.0918H161.676C161.766 52.6018 162.006 52.9718 162.396 53.2018C162.796 53.4218 163.281 53.5318 163.851 53.5318C164.371 53.5318 164.776 53.4418 165.066 53.2618C165.356 53.0818 165.501 52.8068 165.501 52.4368C165.501 52.0868 165.371 51.8318 165.111 51.6718C164.851 51.5018 164.461 51.3668 163.941 51.2668L162.936 51.0718C162.216 50.9318 161.646 50.7068 161.226 50.3968C160.806 50.0868 160.596 49.5968 160.596 48.9268C160.596 48.1968 160.856 47.6468 161.376 47.2768C161.906 46.8968 162.606 46.7068 163.476 46.7068C164.376 46.7068 165.091 46.9068 165.621 47.3068C166.161 47.6968 166.466 48.2618 166.536 49.0018H165.276C165.236 48.5618 165.051 48.2368 164.721 48.0268C164.391 47.8168 163.956 47.7118 163.416 47.7118C162.896 47.7118 162.496 47.8068 162.216 47.9968C161.946 48.1868 161.811 48.4618 161.811 48.8218C161.811 49.1818 161.941 49.4468 162.201 49.6168C162.461 49.7868 162.841 49.9218 163.341 50.0218L164.196 50.1868C164.716 50.2868 165.151 50.4018 165.501 50.5318C165.851 50.6618 166.141 50.8668 166.371 51.1468C166.601 51.4268 166.716 51.8018 166.716 52.2718C166.716 53.0218 166.436 53.5918 165.876 53.9818C165.316 54.3718 164.616 54.5668 163.776 54.5668ZM171.078 54.4018C170.448 54.4018 169.968 54.2418 169.638 53.9218C169.308 53.5918 169.143 53.1118 169.143 52.4818V47.9368H167.688V46.8568H169.143V44.7868L170.373 44.4418V46.8568H172.128V47.9368H170.373V52.3168C170.373 52.6668 170.443 52.9218 170.583 53.0818C170.723 53.2418 170.963 53.3218 171.303 53.3218H172.293V54.4018H171.078ZM177.291 54.5668C176.561 54.5668 175.921 54.4118 175.371 54.1018C174.821 53.7818 174.396 53.3268 174.096 52.7368C173.796 52.1368 173.646 51.4368 173.646 50.6368C173.646 49.8368 173.796 49.1418 174.096 48.5518C174.396 47.9518 174.821 47.4968 175.371 47.1868C175.921 46.8668 176.561 46.7068 177.291 46.7068C178.021 46.7068 178.661 46.8668 179.211 47.1868C179.761 47.4968 180.186 47.9518 180.486 48.5518C180.786 49.1418 180.936 49.8368 180.936 50.6368C180.936 51.4368 180.786 52.1368 180.486 52.7368C180.186 53.3268 179.761 53.7818 179.211 54.1018C178.661 54.4118 178.021 54.5668 177.291 54.5668ZM177.291 53.4268C178.021 53.4268 178.601 53.1818 179.031 52.6918C179.461 52.2018 179.676 51.5168 179.676 50.6368C179.676 49.7568 179.461 49.0718 179.031 48.5818C178.601 48.0918 178.021 47.8468 177.291 47.8468C176.561 47.8468 175.981 48.0918 175.551 48.5818C175.121 49.0718 174.906 49.7568 174.906 50.6368C174.906 51.5168 175.121 52.2018 175.551 52.6918C175.981 53.1818 176.561 53.4268 177.291 53.4268ZM182.96 46.8568H184.16V48.1018C184.35 47.6618 184.645 47.3218 185.045 47.0818C185.445 46.8318 185.9 46.7068 186.41 46.7068C186.93 46.7068 187.385 46.8368 187.775 47.0968C188.175 47.3468 188.44 47.7168 188.57 48.2068C188.78 47.7168 189.115 47.3468 189.575 47.0968C190.035 46.8368 190.54 46.7068 191.09 46.7068C191.79 46.7068 192.37 46.9068 192.83 47.3068C193.29 47.7068 193.52 48.2718 193.52 49.0018V54.4018H192.29V49.3918C192.29 48.8818 192.15 48.4918 191.87 48.2218C191.6 47.9418 191.245 47.8018 190.805 47.8018C190.465 47.8018 190.145 47.8868 189.845 48.0568C189.545 48.2168 189.305 48.4568 189.125 48.7768C188.945 49.0868 188.855 49.4668 188.855 49.9168V54.4018H187.625V49.3918C187.625 48.8818 187.485 48.4918 187.205 48.2218C186.935 47.9418 186.58 47.8018 186.14 47.8018C185.8 47.8018 185.48 47.8868 185.18 48.0568C184.88 48.2168 184.64 48.4568 184.46 48.7768C184.28 49.0868 184.19 49.4668 184.19 49.9168V54.4018H182.96V46.8568ZM199.893 46.8568H201.093V48.1018C201.283 47.6618 201.578 47.3218 201.978 47.0818C202.378 46.8318 202.833 46.7068 203.343 46.7068C203.863 46.7068 204.318 46.8368 204.708 47.0968C205.108 47.3468 205.373 47.7168 205.503 48.2068C205.713 47.7168 206.048 47.3468 206.508 47.0968C206.968 46.8368 207.473 46.7068 208.023 46.7068C208.723 46.7068 209.303 46.9068 209.763 47.3068C210.223 47.7068 210.453 48.2718 210.453 49.0018V54.4018H209.223V49.3918C209.223 48.8818 209.083 48.4918 208.803 48.2218C208.533 47.9418 208.178 47.8018 207.738 47.8018C207.398 47.8018 207.078 47.8868 206.778 48.0568C206.478 48.2168 206.238 48.4568 206.058 48.7768C205.878 49.0868 205.788 49.4668 205.788 49.9168V54.4018H204.558V49.3918C204.558 48.8818 204.418 48.4918 204.138 48.2218C203.868 47.9418 203.513 47.8018 203.073 47.8018C202.733 47.8018 202.413 47.8868 202.113 48.0568C201.813 48.2168 201.573 48.4568 201.393 48.7768C201.213 49.0868 201.123 49.4668 201.123 49.9168V54.4018H199.893V46.8568ZM215.975 54.5668C215.275 54.5668 214.655 54.4268 214.115 54.1468C213.585 53.8568 213.165 53.4218 212.855 52.8418C212.555 52.2618 212.405 51.5468 212.405 50.6968C212.405 49.9168 212.555 49.2268 212.855 48.6268C213.155 48.0168 213.575 47.5468 214.115 47.2168C214.655 46.8768 215.285 46.7068 216.005 46.7068C217.065 46.7068 217.88 47.0668 218.45 47.7868C219.02 48.4968 219.305 49.4668 219.305 50.6968V50.9668H213.065V49.9168H218.045C217.985 49.2468 217.79 48.7268 217.46 48.3568C217.14 47.9868 216.655 47.8018 216.005 47.8018C215.225 47.8018 214.63 48.0618 214.22 48.5818C213.82 49.0918 213.62 49.7868 213.62 50.6668C213.62 51.6068 213.83 52.3118 214.25 52.7818C214.67 53.2418 215.255 53.4718 216.005 53.4718C216.495 53.4718 216.895 53.3718 217.205 53.1718C217.525 52.9618 217.78 52.6368 217.97 52.1968H219.245C218.995 52.9868 218.59 53.5818 218.03 53.9818C217.48 54.3718 216.795 54.5668 215.975 54.5668ZM224.084 54.5668C223.204 54.5668 222.444 54.3618 221.804 53.9518C221.164 53.5318 220.804 52.9118 220.724 52.0918H221.984C222.074 52.6018 222.314 52.9718 222.704 53.2018C223.104 53.4218 223.589 53.5318 224.159 53.5318C224.679 53.5318 225.084 53.4418 225.374 53.2618C225.664 53.0818 225.809 52.8068 225.809 52.4368C225.809 52.0868 225.679 51.8318 225.419 51.6718C225.159 51.5018 224.769 51.3668 224.249 51.2668L223.244 51.0718C222.524 50.9318 221.954 50.7068 221.534 50.3968C221.114 50.0868 220.904 49.5968 220.904 48.9268C220.904 48.1968 221.164 47.6468 221.684 47.2768C222.214 46.8968 222.914 46.7068 223.784 46.7068C224.684 46.7068 225.399 46.9068 225.929 47.3068C226.469 47.6968 226.774 48.2618 226.844 49.0018H225.584C225.544 48.5618 225.359 48.2368 225.029 48.0268C224.699 47.8168 224.264 47.7118 223.724 47.7118C223.204 47.7118 222.804 47.8068 222.524 47.9968C222.254 48.1868 222.119 48.4618 222.119 48.8218C222.119 49.1818 222.249 49.4468 222.509 49.6168C222.769 49.7868 223.149 49.9218 223.649 50.0218L224.504 50.1868C225.024 50.2868 225.459 50.4018 225.809 50.5318C226.159 50.6618 226.449 50.8668 226.679 51.1468C226.909 51.4268 227.024 51.8018 227.024 52.2718C227.024 53.0218 226.744 53.5918 226.184 53.9818C225.624 54.3718 224.924 54.5668 224.084 54.5668ZM231.73 54.5668C230.85 54.5668 230.09 54.3618 229.45 53.9518C228.81 53.5318 228.45 52.9118 228.37 52.0918H229.63C229.72 52.6018 229.96 52.9718 230.35 53.2018C230.75 53.4218 231.235 53.5318 231.805 53.5318C232.325 53.5318 232.73 53.4418 233.02 53.2618C233.31 53.0818 233.455 52.8068 233.455 52.4368C233.455 52.0868 233.325 51.8318 233.065 51.6718C232.805 51.5018 232.415 51.3668 231.895 51.2668L230.89 51.0718C230.17 50.9318 229.6 50.7068 229.18 50.3968C228.76 50.0868 228.55 49.5968 228.55 48.9268C228.55 48.1968 228.81 47.6468 229.33 47.2768C229.86 46.8968 230.56 46.7068 231.43 46.7068C232.33 46.7068 233.045 46.9068 233.575 47.3068C234.115 47.6968 234.42 48.2618 234.49 49.0018H233.23C233.19 48.5618 233.005 48.2368 232.675 48.0268C232.345 47.8168 231.91 47.7118 231.37 47.7118C230.85 47.7118 230.45 47.8068 230.17 47.9968C229.9 48.1868 229.765 48.4618 229.765 48.8218C229.765 49.1818 229.895 49.4468 230.155 49.6168C230.415 49.7868 230.795 49.9218 231.295 50.0218L232.15 50.1868C232.67 50.2868 233.105 50.4018 233.455 50.5318C233.805 50.6618 234.095 50.8668 234.325 51.1468C234.555 51.4268 234.67 51.8018 234.67 52.2718C234.67 53.0218 234.39 53.5918 233.83 53.9818C233.27 54.3718 232.57 54.5668 231.73 54.5668ZM238.567 54.5668C237.847 54.5668 237.252 54.3768 236.782 53.9968C236.322 53.6168 236.092 53.0718 236.092 52.3618C236.092 51.6718 236.302 51.1518 236.722 50.8018C237.152 50.4418 237.712 50.2168 238.402 50.1268L240.187 49.8868C240.417 49.8568 240.607 49.8118 240.757 49.7518C240.917 49.6918 241.042 49.6018 241.132 49.4818C241.222 49.3518 241.267 49.1768 241.267 48.9568C241.267 48.5568 241.127 48.2518 240.847 48.0418C240.567 47.8218 240.147 47.7118 239.587 47.7118C238.977 47.7118 238.497 47.8268 238.147 48.0568C237.807 48.2868 237.602 48.6268 237.532 49.0768H236.272C236.372 48.2968 236.712 47.7068 237.292 47.3068C237.872 46.9068 238.642 46.7068 239.602 46.7068C240.562 46.7068 241.282 46.9068 241.762 47.3068C242.252 47.7068 242.497 48.3168 242.497 49.1368V54.4018H241.327V52.9618C241.077 53.4618 240.717 53.8568 240.247 54.1468C239.787 54.4268 239.227 54.5668 238.567 54.5668ZM238.807 53.4868C239.247 53.4868 239.652 53.3918 240.022 53.2018C240.402 53.0118 240.702 52.7418 240.922 52.3918C241.152 52.0318 241.267 51.6168 241.267 51.1468V50.0968L241.582 50.3368C241.342 50.4768 241.117 50.5868 240.907 50.6668C240.707 50.7368 240.397 50.7968 239.977 50.8468L238.852 50.9968C238.432 51.0468 238.072 51.1668 237.772 51.3568C237.482 51.5368 237.337 51.8468 237.337 52.2868C237.337 52.6868 237.472 52.9868 237.742 53.1868C238.012 53.3868 238.367 53.4868 238.807 53.4868ZM248.191 57.4468C247.231 57.4468 246.436 57.2118 245.806 56.7418C245.176 56.2818 244.821 55.6418 244.741 54.8218H245.971C246.041 55.3118 246.261 55.7018 246.631 55.9918C247.011 56.2818 247.536 56.4268 248.206 56.4268C248.946 56.4268 249.511 56.2418 249.901 55.8718C250.301 55.5118 250.501 54.9468 250.501 54.1768V52.6618C250.271 53.1518 249.916 53.5218 249.436 53.7718C248.956 54.0218 248.441 54.1468 247.891 54.1468C247.271 54.1468 246.706 54.0068 246.196 53.7268C245.686 53.4468 245.276 53.0318 244.966 52.4818C244.666 51.9218 244.516 51.2468 244.516 50.4568C244.516 49.6368 244.676 48.9468 244.996 48.3868C245.316 47.8168 245.736 47.3968 246.256 47.1268C246.786 46.8468 247.366 46.7068 247.996 46.7068C248.606 46.7068 249.126 46.8368 249.556 47.0968C249.986 47.3468 250.301 47.6568 250.501 48.0268V46.8568H251.701V54.0568C251.701 54.7968 251.551 55.4168 251.251 55.9168C250.961 56.4268 250.551 56.8068 250.021 57.0568C249.501 57.3168 248.891 57.4468 248.191 57.4468ZM248.116 53.0518C248.766 53.0518 249.321 52.8418 249.781 52.4218C250.241 51.9918 250.471 51.3418 250.471 50.4718C250.471 49.6118 250.251 48.9568 249.811 48.5068C249.371 48.0468 248.821 47.8168 248.161 47.8168C247.491 47.8168 246.926 48.0418 246.466 48.4918C246.006 48.9418 245.776 49.5968 245.776 50.4568C245.776 51.2868 245.996 51.9268 246.436 52.3768C246.886 52.8268 247.446 53.0518 248.116 53.0518ZM257.225 54.5668C256.525 54.5668 255.905 54.4268 255.365 54.1468C254.835 53.8568 254.415 53.4218 254.105 52.8418C253.805 52.2618 253.655 51.5468 253.655 50.6968C253.655 49.9168 253.805 49.2268 254.105 48.6268C254.405 48.0168 254.825 47.5468 255.365 47.2168C255.905 46.8768 256.535 46.7068 257.255 46.7068C258.315 46.7068 259.13 47.0668 259.7 47.7868C260.27 48.4968 260.555 49.4668 260.555 50.6968V50.9668H254.315V49.9168H259.295C259.235 49.2468 259.04 48.7268 258.71 48.3568C258.39 47.9868 257.905 47.8018 257.255 47.8018C256.475 47.8018 255.88 48.0618 255.47 48.5818C255.07 49.0918 254.87 49.7868 254.87 50.6668C254.87 51.6068 255.08 52.3118 255.5 52.7818C255.92 53.2418 256.505 53.4718 257.255 53.4718C257.745 53.4718 258.145 53.3718 258.455 53.1718C258.775 52.9618 259.03 52.6368 259.22 52.1968H260.495C260.245 52.9868 259.84 53.5818 259.28 53.9818C258.73 54.3718 258.045 54.5668 257.225 54.5668ZM262.199 52.7818H263.759V54.4018H262.199V52.7818Z" fill="white" fill-opacity="0.66"/>
</svg>
