<svg width="20" height="21" viewBox="0 0 20 21" fill="none" xmlns="http://www.w3.org/2000/svg">
<g clip-path="url(#clip0_2458_99063)">
<mask id="mask0_2458_99063" style="mask-type:luminance" maskUnits="userSpaceOnUse" x="-4" y="-3" width="28" height="27">
<path d="M23.3377 -2.83099H-3.32422V23.831H23.3377V-2.83099Z" fill="white"/>
</mask>
<g mask="url(#mask0_2458_99063)">
<mask id="mask1_2458_99063" style="mask-type:luminance" maskUnits="userSpaceOnUse" x="-26" y="-26" width="72" height="73">
<path d="M-25.5977 -25.1107H45.6236V46.1106H-25.5977V-25.1107Z" fill="white"/>
</mask>
<g mask="url(#mask1_2458_99063)">
<path fill-rule="evenodd" clip-rule="evenodd" d="M18.6371 5.81373C18.638 6.33138 18.219 6.75168 17.7013 6.75249L9.90738 6.76481H9.90664C7.84382 6.76481 6.17144 8.43719 6.17144 10.5C6.17144 12.5628 7.84382 14.2352 9.90664 14.2352H17.4113C17.929 14.2352 18.3486 14.6549 18.3486 15.1725C18.3486 15.6902 17.929 16.1098 17.4113 16.1098H9.90664C6.80852 16.1098 4.29688 13.5981 4.29688 10.5C4.29688 7.40215 6.80812 4.89065 9.9059 4.89025C9.90614 4.89025 9.90639 4.89025 9.90664 4.89025L17.6984 4.87793C18.216 4.87711 18.6363 5.29608 18.6371 5.81373Z" fill="white"/>
<path fill-rule="evenodd" clip-rule="evenodd" d="M0.121094 10.5C0.121094 9.98232 0.540729 9.56268 1.05838 9.56268H19.0601C19.5778 9.56268 19.9974 9.98232 19.9974 10.5C19.9974 11.0176 19.5778 11.4372 19.0601 11.4372H1.05838C0.540729 11.4372 0.121094 11.0176 0.121094 10.5Z" fill="white"/>
<path fill-rule="evenodd" clip-rule="evenodd" d="M9.99609 2.37456C5.50854 2.37456 1.87066 6.01245 1.87066 10.5C1.87066 14.9875 5.50854 18.6254 9.99609 18.6254C14.4836 18.6254 18.1215 14.9875 18.1215 10.5C18.1215 6.01245 14.4836 2.37456 9.99609 2.37456ZM-0.00390625 10.5C-0.00390625 4.97716 4.47325 0.5 9.99609 0.5C15.5189 0.5 19.9961 4.97716 19.9961 10.5C19.9961 16.0228 15.5189 20.5 9.99609 20.5C4.47325 20.5 -0.00390625 16.0228 -0.00390625 10.5Z" fill="white"/>
</g>
</g>
</g>
<defs>
<clipPath id="clip0_2458_99063">
<rect width="20" height="20" fill="white" transform="translate(0 0.5)"/>
</clipPath>
</defs>
</svg>
