<svg width="27" height="15" viewBox="0 0 27 15" fill="none" xmlns="http://www.w3.org/2000/svg">
<path d="M1.77367 12.8836L6.61473 1.61559L5.947 0.0297241H8.72227L14.8362 14.6364H9.16047L11.3306 12.9045L10.016 9.79532H3.90207L2.65007 12.7584L5.34187 14.6364H0L1.77367 12.8836ZM9.72387 9.10672L6.99033 2.49199L4.1942 9.10672H9.72387Z" fill="white"/>
<path d="M22.6597 12.7167C22.1728 13.3983 21.6234 13.9269 21.0113 14.3025C20.4131 14.6781 19.7871 14.8659 19.1333 14.8659C18.3403 14.8659 17.6587 14.6086 17.0883 14.0939C16.518 13.5791 16.2328 12.8905 16.2328 12.0281C16.2328 11.2769 16.4623 10.6717 16.9214 10.2127C17.3805 9.73968 18.0552 9.36408 18.9455 9.08586C19.8358 8.79372 21.0391 8.52941 22.5554 8.29292V7.24959C22.5554 6.42883 22.3676 5.78892 21.992 5.32986C21.6164 4.87079 21.1573 4.62039 20.6148 4.57866L18.0691 7.64606L16.2954 5.72632C16.824 5.36463 17.3109 5.0725 17.7561 4.84992C18.2151 4.61344 18.6951 4.43259 19.1959 4.30739C19.7106 4.16828 20.2601 4.09873 20.8443 4.09873C22.0546 4.09873 23.0353 4.39781 23.7865 4.99599C24.5516 5.58026 24.9342 6.40797 24.9342 7.47912V12.4663L27 13.6139L22.6597 14.9703V12.7167ZM20.4061 13.2175C21.1852 13.2175 21.9016 12.8488 22.5554 12.1115V8.81459C21.2338 9.0789 20.2809 9.44059 19.6967 9.89966C19.1124 10.3448 18.8203 10.9221 18.8203 11.6316C18.8203 12.1741 18.9733 12.5775 19.2793 12.8419C19.5854 13.0923 19.961 13.2175 20.4061 13.2175Z" fill="white"/>
</svg>
