<svg width="33" height="20" viewBox="0 0 33 20" fill="none" xmlns="http://www.w3.org/2000/svg">
<path d="M2.49865 15.946L8.27898 2.49176L7.48169 0.598206H10.7954L18.0956 18.0389H11.3186L13.9098 15.9709L12.3402 12.2585H5.04L3.54509 15.7965L6.75915 18.0389H0.380859L2.49865 15.946ZM11.9913 11.4363L8.72745 3.5382L5.38882 11.4363H11.9913Z" fill="white"/>
<path d="M27.437 15.7467C26.8557 16.5605 26.1996 17.1917 25.4687 17.6402C24.7545 18.0887 24.007 18.3129 23.2263 18.3129C22.2796 18.3129 21.4657 18.0056 20.7847 17.3911C20.1036 16.7765 19.7631 15.9543 19.7631 14.9244C19.7631 14.0275 20.0372 13.305 20.5853 12.7568C21.1335 12.1921 21.9391 11.7436 23.0021 11.4114C24.0652 11.0626 25.5019 10.747 27.3124 10.4646V9.21887C27.3124 8.23887 27.0882 7.4748 26.6397 6.92667C26.1913 6.37853 25.6431 6.07955 24.9953 6.02972L21.9557 9.69226L19.8379 7.40006C20.4691 6.96819 21.0504 6.61938 21.5819 6.35362C22.1301 6.07125 22.7031 5.85531 23.3011 5.70582C23.9157 5.53972 24.5718 5.45667 25.2694 5.45667C26.7145 5.45667 27.8855 5.81379 28.7824 6.52803C29.696 7.22565 30.1528 8.21395 30.1528 9.49293V15.4477L32.6194 16.818L27.437 18.4375V15.7467ZM24.7462 16.3446C25.6763 16.3446 26.5318 15.9044 27.3124 15.0241V11.0875C25.7345 11.4031 24.5967 11.835 23.8991 12.3831C23.2014 12.9146 22.8526 13.6039 22.8526 14.4511C22.8526 15.0989 23.0353 15.5806 23.4008 15.8961C23.7662 16.1951 24.2147 16.3446 24.7462 16.3446Z" fill="white"/>
</svg>
