<svg width="26" height="23" viewBox="0 0 26 23" fill="none" xmlns="http://www.w3.org/2000/svg">
<path fill-rule="evenodd" clip-rule="evenodd" d="M9.51287 3.01619C9.59309 2.75322 9.83574 2.57355 10.1107 2.57355L16.3893 2.57355C16.6643 2.57355 16.9069 2.75322 16.9871 3.01619L17.6631 5.23208L17.8521 5.85178H18.5L22.2449 5.85178C22.8206 5.85178 23.2873 6.3185 23.2873 6.89422L23.2873 19.384C23.2873 19.9598 22.8206 20.4265 22.2449 20.4265L3.75508 20.4265C3.17936 20.4265 2.71265 19.9598 2.71265 19.384L2.71265 6.89422C2.71265 6.3185 3.17936 5.85178 3.75508 5.85178L8 5.85178H8.64789L8.83693 5.23208L9.51287 3.01619ZM10.1107 0.823547C9.06591 0.823547 8.14384 1.50629 7.83901 2.5056L7.35211 4.10178L3.75508 4.10178C2.21286 4.10178 0.962646 5.352 0.962646 6.89422L0.962646 19.384C0.962646 20.9263 2.21286 22.1765 3.75508 22.1765L22.2449 22.1765C23.7871 22.1765 25.0373 20.9263 25.0373 19.384L25.0373 6.89422C25.0373 5.352 23.7871 4.10178 22.2449 4.10178L19.1479 4.10178L18.661 2.50559C18.3562 1.50629 17.4341 0.823547 16.3893 0.823547L10.1107 0.823547ZM9.37499 12.5C9.37499 10.498 10.998 8.87499 13 8.87499C15.002 8.87499 16.625 10.498 16.625 12.5C16.625 14.502 15.002 16.125 13 16.125C10.998 16.125 9.37499 14.502 9.37499 12.5ZM13 7.12499C10.0315 7.12499 7.62499 9.53146 7.62499 12.5C7.62499 15.4685 10.0315 17.875 13 17.875C15.9685 17.875 18.375 15.4685 18.375 12.5C18.375 9.53146 15.9685 7.12499 13 7.12499Z" fill="white"/>
</svg>
