<svg width="14" height="15" viewBox="0 0 14 15" fill="none" xmlns="http://www.w3.org/2000/svg">
<path fill-rule="evenodd" clip-rule="evenodd" d="M2.14062 2.99528C2.14062 2.61902 2.44323 2.32013 2.80899 2.32013H8.05846C8.42422 2.32013 8.72683 2.61902 8.72683 2.99528V4.59372H6.58248C5.38155 4.59372 4.41412 5.57095 4.41412 6.76887V8.90633H2.80899C2.44323 8.90633 2.14062 8.60744 2.14062 8.23118V2.99528ZM4.41412 10.4063H2.80899C1.60806 10.4063 0.640625 9.4291 0.640625 8.23118V2.99528C0.640625 1.79736 1.60806 0.820129 2.80899 0.820129H8.05846C9.25939 0.820129 10.2268 1.79736 10.2268 2.99528V4.59372H11.832C13.0329 4.59372 14.0003 5.57095 14.0003 6.76887V12.0048C14.0003 13.2027 13.0329 14.1799 11.832 14.1799H6.58248C5.38155 14.1799 4.41412 13.2027 4.41412 12.0048V10.4063ZM10.2268 6.09372H11.832C12.1977 6.09372 12.5003 6.39261 12.5003 6.76887V12.0048C12.5003 12.381 12.1977 12.6799 11.832 12.6799H6.58248C6.21673 12.6799 5.91412 12.381 5.91412 12.0048V10.4063H8.05846C9.25939 10.4063 10.2268 9.4291 10.2268 8.23118V6.09372ZM8.72683 6.09372V8.23118C8.72683 8.60744 8.42422 8.90633 8.05846 8.90633H5.91412V6.76887C5.91412 6.39261 6.21673 6.09372 6.58248 6.09372H8.72683Z" fill="white"/>
</svg>
