<svg width="23" height="27" viewBox="0 0 23 27" fill="none" xmlns="http://www.w3.org/2000/svg">
<path d="M8.04342 4.6286C7.13676 8.5284 4.17819 11.6046 0.42749 12.5473C4.17819 13.49 7.13676 16.5661 8.04342 20.4659C8.95008 16.5661 11.9087 13.49 15.6594 12.5473C11.9087 11.6046 8.95008 8.5284 8.04342 4.6286Z" fill="#7AB7FD"/>
<path d="M17.7781 16.2C17.1704 18.8538 15.1549 20.9388 12.6128 21.5707C15.1651 22.2025 17.1704 24.2981 17.7781 26.9413C18.3858 24.2876 20.4013 22.2025 22.9435 21.5707C20.3912 20.9283 18.3858 18.8432 17.7781 16.2Z" fill="#7AB7FD"/>
<path d="M19.1036 0C18.6909 1.80855 17.32 3.23394 15.5806 3.66308C17.32 4.09223 18.6909 5.51764 19.1036 7.32619C19.5163 5.51764 20.8872 4.09223 22.6266 3.66308C20.8872 3.23394 19.5163 1.80855 19.1036 0Z" fill="#7AB7FD"/>
</svg>
