<svg width="15" height="15" viewBox="0 0 15 15" fill="none" xmlns="http://www.w3.org/2000/svg">
<path fill-rule="evenodd" clip-rule="evenodd" d="M1.23631 1.23631C2.21805 0.254564 3.81077 0.254564 4.79251 1.23631L4.26218 1.76664L4.79251 1.23631L5.84424 2.28804C6.20278 2.11794 6.58982 2.20661 6.79146 2.27833C7.10579 2.39013 7.41093 2.59913 7.66618 2.85438C7.92142 3.10962 8.13042 3.41476 8.24222 3.72909C8.31394 3.93073 8.40261 4.31777 8.23252 4.67631L11.8813 8.32507L11.8817 8.32548C12.7577 9.19906 13.3713 10.2948 13.6631 11.4922C14.2488 12.0925 14.2443 13.0548 13.6495 13.6495C13.0547 14.2443 12.0923 14.2488 11.492 13.663C10.2962 13.3707 9.19876 12.755 8.32586 11.8821L4.67691 8.23312C4.31773 8.4047 3.92946 8.3158 3.72739 8.24393C3.41305 8.13213 3.10792 7.92313 2.85267 7.66788C2.59743 7.41264 2.38842 7.1075 2.27662 6.79317C2.20475 6.59109 2.11585 6.20282 2.28743 5.84364L1.23631 4.79251L1.76664 4.26218L1.23631 4.79251C0.254564 3.81077 0.254564 2.21805 1.23631 1.23631ZM4.74349 3.30861L3.30861 4.74349L2.29697 3.73185C1.90101 3.3359 1.90101 2.69292 2.29697 2.29697C2.69292 1.90101 3.3359 1.90101 3.73185 2.29697L4.74349 3.30861ZM3.75712 6.41789C3.79375 6.47357 3.84496 6.53885 3.91333 6.60722C3.9821 6.67599 4.04773 6.72739 4.10363 6.76406L6.76236 4.10533C6.72569 4.04944 6.67428 3.9838 6.60552 3.91504C6.53714 3.84666 6.47186 3.79546 6.41618 3.75883L6.33528 3.83973L3.83973 6.33528L3.75712 6.41789ZM5.78591 7.2208L9.38652 10.8214C10.1068 11.5417 11.0248 12.0372 12.0221 12.2453L12.2411 12.291L12.3993 12.4491L12.539 12.5889C12.5433 12.5931 12.5468 12.5952 12.5501 12.5965C12.5538 12.598 12.5585 12.599 12.564 12.599C12.5694 12.599 12.5741 12.598 12.5779 12.5965C12.5811 12.5952 12.5846 12.5931 12.5889 12.5889C12.5931 12.5846 12.5952 12.5811 12.5965 12.5779C12.598 12.5741 12.599 12.5694 12.599 12.564C12.599 12.5585 12.598 12.5538 12.5965 12.5501C12.5952 12.5468 12.5931 12.5433 12.5889 12.539L12.4491 12.3993L12.2908 12.241L12.2452 12.0218C12.0371 11.0218 11.5438 10.1068 10.8222 9.38731L10.8214 9.38652L7.2208 5.78591L5.78591 7.2208Z" fill="white"/>
</svg>
