<svg width="31" height="31" viewBox="0 0 31 31" fill="none" xmlns="http://www.w3.org/2000/svg">
<path fill-rule="evenodd" clip-rule="evenodd" d="M26.4542 12.6744L27.2634 14.9156L27.2717 14.9128C27.9355 16.7288 28.1906 18.3911 28.0425 19.8971C27.8944 21.403 27.3512 22.7088 26.4186 23.8225C25.4859 24.9362 24.1719 25.7975 22.4794 26.412C20.6141 27.0923 18.7406 27.1828 16.867 26.6808C16.2443 26.5135 15.6353 26.2611 15.0346 25.9182C14.165 25.6576 13.2516 25.3833 12.2915 25.0898C10.6593 24.5933 8.92839 24.2394 7.09599 24.0255C6.62143 23.9679 6.22093 23.8746 5.89724 23.7457C5.57355 23.6167 5.34039 23.3589 5.19774 22.9776C5.04139 22.5606 5.04962 22.1601 5.21969 21.7789C5.38976 21.3976 5.72442 21.115 6.22367 20.9285C6.69275 20.7529 7.23314 20.6569 7.84212 20.635C8.44835 20.613 9.06829 20.6185 9.69647 20.6514C10.3246 20.6843 10.9144 20.6981 11.4603 20.6981C12.0089 20.6981 12.4588 20.6295 12.8154 20.4978C13.2159 20.3497 13.4738 20.0891 13.5944 19.7133C13.6767 19.4554 13.6905 19.1729 13.6329 18.8711L8.95034 6.00588C8.79124 5.57247 8.78849 5.18295 8.93662 4.82908C9.08475 4.47522 9.35906 4.22834 9.75682 4.08844C10.1217 3.95403 10.4755 3.97323 10.8211 4.1433C11.164 4.31338 11.4164 4.61512 11.5728 5.04579L14.8014 13.9171C14.8919 14.1557 15.0099 14.3148 15.1553 14.3889C15.3007 14.4657 15.4543 14.4767 15.6106 14.4273C15.7533 14.3779 15.852 14.2737 15.9096 14.1173C15.9673 13.9609 15.9535 13.7662 15.8712 13.533L14.9002 10.8832C14.7575 10.4854 14.9166 10.2056 15.372 10.0383C15.8767 9.849 16.365 9.85449 16.8341 10.0575C17.3004 10.2605 17.6598 10.7021 17.9094 11.3824L18.3565 12.6278C18.447 12.861 18.565 13.0146 18.7104 13.0941C18.8558 13.1737 19.0094 13.1874 19.1657 13.138C19.3084 13.0804 19.4071 12.9734 19.4647 12.8198C19.5223 12.6662 19.5086 12.4742 19.4263 12.241L18.9298 10.8832C18.7872 10.4854 18.9463 10.2056 19.4016 10.0383C19.9256 9.84626 20.4248 9.87095 20.9021 10.1123C21.3794 10.3537 21.7278 10.7762 21.9528 11.3824L22.1887 12.0298C22.271 12.263 22.3889 12.4166 22.537 12.4961C22.6852 12.5757 22.836 12.5894 22.9842 12.54C23.1241 12.4824 23.2256 12.3754 23.2887 12.2218C23.3517 12.0682 23.3353 11.8762 23.2448 11.643L22.8827 10.6473C22.7894 10.3976 22.8772 10.2221 23.1433 10.1233C23.5163 9.99164 23.9113 9.99987 24.3256 10.148C24.7398 10.2961 25.1348 10.5842 25.5078 11.0066C25.8809 11.429 26.1964 11.9859 26.4542 12.6744ZM4.56694 13.9939C4.41607 15.829 4.7809 17.6751 5.27467 18.8684H5.27192L3.90585 19.6666C3.46146 18.5858 2.67418 16.0567 2.98964 13.8622C3.20361 12.3891 3.50535 10.9956 4.15547 9.75573C4.77542 8.56795 5.62304 7.53654 6.67915 6.67245L7.25795 8.26347C5.30484 10.0822 4.70684 12.326 4.56694 13.9939Z" fill="white"/>
</svg>
