<svg width="22" height="21" viewBox="0 0 22 21" fill="none" xmlns="http://www.w3.org/2000/svg">
<path fill-rule="evenodd" clip-rule="evenodd" d="M10.1243 20.125C10.1243 20.6083 10.5161 21 10.9993 21C11.4826 21 11.8743 20.6083 11.8743 20.125V11.4304H20.5689C21.0522 11.4304 21.4439 11.0386 21.4439 10.5554C21.4439 10.0722 21.0522 9.6804 20.5689 9.6804H11.8743V0.985779C11.8743 0.502529 11.4826 0.110779 10.9993 0.110779C10.5161 0.110779 10.1243 0.502529 10.1243 0.985779V9.6804H1.42969C0.946438 9.6804 0.554688 10.0722 0.554688 10.5554C0.554688 11.0386 0.946438 11.4304 1.42969 11.4304H10.1243V20.125Z" fill="white"/>
</svg>
