<svg width="15" height="15" viewBox="0 0 15 15" fill="none" xmlns="http://www.w3.org/2000/svg">
<path fill-rule="evenodd" clip-rule="evenodd" d="M7.6625 5.28759L5.19259 2.79163L7.68855 0.321716L7.67995 1.96043C11.2178 2.02781 14.065 4.91676 14.065 8.4707H12.565C12.565 5.74257 10.3851 3.52359 7.67208 3.4606L7.6625 5.28759ZM2.43457 7.60766C2.43457 7.44008 2.57042 7.30423 2.73801 7.30423H8.35633C8.52391 7.30423 8.65976 7.44008 8.65976 7.60766V12.8748C8.65976 13.0424 8.52391 13.1783 8.35633 13.1783H2.73801C2.57042 13.1783 2.43457 13.0424 2.43457 12.8748V7.60766ZM2.73801 5.80423C1.742 5.80423 0.93457 6.61165 0.93457 7.60766V12.8748C0.93457 13.8708 1.74199 14.6783 2.73801 14.6783H8.35633C9.35233 14.6783 10.1598 13.8708 10.1598 12.8748V7.60766C10.1598 6.61165 9.35234 5.80423 8.35633 5.80423H2.73801Z" fill="white"/>
</svg>
