<svg width="31" height="34" viewBox="0 0 31 34" fill="none" xmlns="http://www.w3.org/2000/svg">
<mask id="mask0_1209_16713" style="mask-type:alpha" maskUnits="userSpaceOnUse" x="0" y="0" width="31" height="29">
<mask id="path-1-inside-1_1209_16713" fill="white">
<path d="M30.261 15.8564C30.4145 13.2098 29.8537 10.5705 28.6371 8.21508C27.4206 5.85961 25.5931 3.87455 23.3461 2.46776C21.0991 1.06097 18.5151 0.284204 15.8649 0.218795C13.2146 0.153387 10.5955 0.801744 8.28181 2.09598C5.96812 3.39021 4.04496 5.2827 2.71371 7.57529C1.38246 9.86788 0.692097 12.4762 0.714903 15.1272C0.737708 17.7782 1.47285 20.3743 2.84334 22.6436C4.21383 24.9129 6.16927 26.7721 8.50488 28.0263L15.5001 15L30.261 15.8564Z"/>
</mask>
<path d="M30.261 15.8564C30.4145 13.2098 29.8537 10.5705 28.6371 8.21508C27.4206 5.85961 25.5931 3.87455 23.3461 2.46776C21.0991 1.06097 18.5151 0.284204 15.8649 0.218795C13.2146 0.153387 10.5955 0.801744 8.28181 2.09598C5.96812 3.39021 4.04496 5.2827 2.71371 7.57529C1.38246 9.86788 0.692097 12.4762 0.714903 15.1272C0.737708 17.7782 1.47285 20.3743 2.84334 22.6436C4.21383 24.9129 6.16927 26.7721 8.50488 28.0263L15.5001 15L30.261 15.8564Z" stroke="white" stroke-width="3.85714" mask="url(#path-1-inside-1_1209_16713)"/>
</mask>
<g mask="url(#mask0_1209_16713)">
<circle cx="15.5001" cy="15" r="14.0357" stroke="white" stroke-width="1.5"/>
</g>
<path d="M20.2357 33.5963C16.7439 33.5963 13.8511 31.6187 12.4385 27.3585L10.5853 21.7875C10.5175 21.5954 10.4723 21.3807 10.4723 21.1434C10.4723 20.4993 10.9243 19.9682 11.704 19.9682C12.1899 19.9682 12.5628 20.2055 12.8228 20.7931L14.4726 24.6239C14.5969 24.9064 14.7438 25.0081 14.9246 25.0081C15.1167 25.0081 15.3088 24.8612 15.3088 24.5787V12.6117C15.3088 11.7755 15.8286 11.2444 16.5631 11.2444C17.275 11.2444 17.8062 11.7755 17.8062 12.6117V20.9852C17.8062 21.3581 17.9983 21.5615 18.2469 21.5615C18.4842 21.5615 18.6763 21.3581 18.6763 20.9852V18.3523C18.6763 17.9794 18.9136 17.7759 19.343 17.7759C20.3261 17.7759 21.0832 18.3975 21.0832 19.7083V20.9852C21.0832 21.3581 21.2866 21.5615 21.5352 21.5615C21.7612 21.5615 21.9646 21.3581 21.9646 20.9852V19.6066C21.9646 19.2224 22.168 19.0303 22.62 19.0303C23.6371 19.0303 24.3829 19.7987 24.3829 20.9626V21.6632C24.3829 22.0361 24.5863 22.2395 24.8349 22.2395C25.0609 22.2395 25.2643 22.0361 25.2643 21.6632V20.6349C25.2643 20.3976 25.3886 20.2733 25.6372 20.2733C26.722 20.2733 27.6712 21.4711 27.6712 23.4374V25.4488C27.6712 30.7373 25.0383 33.5963 20.2357 33.5963Z" fill="white"/>
</svg>
